<svg xmlns="http://www.w3.org/2000/svg" viewBox="0 0 425.04 180"><defs><style>.a{fill:#444;}</style></defs><path d="M2.57,104.58V2.17H23.76q24.85,0,41.15,13.11t16.3,37.55q0,25.13-16.16,38.44t-41.7,13.31ZM15.34,13.85V92.9h4.48a79.65,79.65,0,0,0,18.74-2,48.48,48.48,0,0,0,15.28-6.52A30.41,30.41,0,0,0,64.57,72a41.75,41.75,0,0,0,3.87-18.61q0-10.86-3.87-18.74A29.8,29.8,0,0,0,53.78,22.34,50.68,50.68,0,0,0,38.5,15.89a78.89,78.89,0,0,0-18.68-2Z"/><path d="M91.26,104.58V2.17h55V13.85H104V42.51h41V54.19H104V92.9h42.23v11.68Z"/><path d="M210.1,13.85H173.29V42.64h35.58V54.32H173.29v50.26H160.52V2.17H210.1Z"/><path class="a" d="M212.41,104.58,229.79,2.17H256l20.78,54.74,22-54.74h26.48l15.48,102.41H314.13l-7.47-58.95h-.27l-24.58,59h-10.6L247.72,45.63h-.27l-8.56,59Z"/><path d="M425,6.93v14.8a39.2,39.2,0,0,0-27-10A38.23,38.23,0,0,0,369.2,24a41.24,41.24,0,0,0-11.74,29.54,41.11,41.11,0,0,0,11.61,29.27,37.76,37.76,0,0,0,28.59,12.29A39.65,39.65,0,0,0,425,84.48V99.55a53.89,53.89,0,0,1-64.58-8.15,50.45,50.45,0,0,1-15.68-37.48q0-22.68,15.89-38.3T399.15,0A48.23,48.23,0,0,1,425,6.93Z"/><path d="M2.17,145.32V118H9.78a12.43,12.43,0,0,1,9.52,3.89,13.73,13.73,0,0,1,3.66,9.8,13.52,13.52,0,0,1-3.71,9.72,12.58,12.58,0,0,1-9.51,3.89ZM7.5,122.65v18h.87q9.09,0,9.09-9t-9.09-9Z"/><path d="M48.19,141.83A12.51,12.51,0,0,1,38.5,146a12.51,12.51,0,0,1-9.69-4.21,15.36,15.36,0,0,1,0-20.3,12.47,12.47,0,0,1,9.67-4.24,12.47,12.47,0,0,1,9.67,4.24A14.52,14.52,0,0,1,52,131.63,14.68,14.68,0,0,1,48.19,141.83Zm-4-16.57a7.34,7.34,0,0,0-11.41,0,9.27,9.27,0,0,0-2.3,6.15,10.11,10.11,0,0,0,2.4,6.34,6.68,6.68,0,0,0,11.22,0,10.1,10.1,0,0,0,2.39-6.34A9.22,9.22,0,0,0,44.2,125.26Z"/><path d="M55.34,145.32v-28h3.84l14.38,19.09h.07V118H79v27.84H75.12L60.74,126.78h-.08v18.54Z"/><path d="M101.81,118.88v6.38a7.47,7.47,0,0,0-6-2.9A7,7,0,0,0,90,125.18a10.44,10.44,0,0,0-2.2,6.6A10,10,0,0,0,90,138.21,7.1,7.1,0,0,0,95.76,141a7.37,7.37,0,0,0,3.28-.8,9.11,9.11,0,0,0,2.77-2.1v6.34a14.81,14.81,0,0,1-6.2,1.62,12.38,12.38,0,0,1-9.5-4.19,14.26,14.26,0,0,1-3.86-10,15.76,15.76,0,0,1,1.67-7.21,13.46,13.46,0,0,1,4.79-5.36,12.81,12.81,0,0,1,13.1-.44Z"/><path d="M121.11,139.56h-9.49l-2.24,5.76h-5.62l10.65-28h4.13l10.36,28h-5.69Zm-1.48-4.34-3.41-9.93h-.07l-3,9.93Z"/><path d="M145.52,120.33,143,124a4.94,4.94,0,0,0-4.09-2.25,3.44,3.44,0,0,0-2.32.89,2.81,2.81,0,0,0-1,2.19,2.42,2.42,0,0,0,.6,1.61,4.42,4.42,0,0,0,1.55,1.16c.64.3,1.35.61,2.12.92a23,23,0,0,1,2.3,1.11,11.51,11.51,0,0,1,2.1,1.48,6.23,6.23,0,0,1,1.56,2.28,8.45,8.45,0,0,1,.6,3.28,9.49,9.49,0,0,1-2.43,6.76,8.53,8.53,0,0,1-6.55,2.58q-5.22,0-8.41-5.32l3.44-3.37a6.46,6.46,0,0,0,1.94,2.83,4.52,4.52,0,0,0,3,1.16,3.15,3.15,0,0,0,2.55-1.16,4.22,4.22,0,0,0,1-2.79q0-2.31-2.64-3.59c-.29-.14-1-.43-2.1-.86a12.74,12.74,0,0,1-4.55-2.88,6.49,6.49,0,0,1-1.54-4.58,8,8,0,0,1,2.29-5.82,7.55,7.55,0,0,1,5.68-2.37,11.3,11.3,0,0,1,4.08.85A8.69,8.69,0,0,1,145.52,120.33Z"/><path d="M159.17,122.65v22.67h-5.32V122.65h-5.5V118h16.33v4.63Z"/><path d="M182.57,122.65h-8.8v6h8.48v4.64h-8.48v7.39h8.8v4.63H168.45V118h14.12Z"/><path d="M197.6,133.8l7.71,11.52h-6.44l-6.63-11h-.07v11h-5.33V118h7.21a10.2,10.2,0,0,1,6.7,2c1.62,1.34,2.43,3.42,2.43,6.22a8.61,8.61,0,0,1-1.49,4.94A5.89,5.89,0,0,1,197.6,133.8Zm-5.43-11.44v8.22h.69a6.37,6.37,0,0,0,3.71-.92,3.8,3.8,0,0,0,1.28-3.28c0-1.57-.43-2.63-1.28-3.19a6.82,6.82,0,0,0-3.68-.83Z"/><path d="M233.09,122.65h-8.8v6h8.48v4.64h-8.48v7.39h8.8v4.63H219V118h14.12Z"/><path d="M252.43,139.56h-9.49l-2.24,5.76h-5.61l10.64-28h4.13l10.36,28h-5.69ZM251,135.22l-3.41-9.93h-.07l-3,9.93Z"/><path d="M276.48,120.33,274,124a4.94,4.94,0,0,0-4.09-2.25,3.44,3.44,0,0,0-2.32.89,2.81,2.81,0,0,0-1,2.19,2.42,2.42,0,0,0,.6,1.61,4.42,4.42,0,0,0,1.55,1.16c.64.3,1.35.61,2.12.92a23,23,0,0,1,2.3,1.11,11.51,11.51,0,0,1,2.1,1.48,6.23,6.23,0,0,1,1.56,2.28,8.45,8.45,0,0,1,.6,3.28,9.49,9.49,0,0,1-2.43,6.76,8.53,8.53,0,0,1-6.55,2.58q-5.22,0-8.41-5.32l3.44-3.37a6.38,6.38,0,0,0,1.94,2.83,4.52,4.52,0,0,0,3,1.16,3.15,3.15,0,0,0,2.55-1.16,4.22,4.22,0,0,0,1-2.79q0-2.31-2.64-3.59c-.29-.14-1-.43-2.1-.86a12.74,12.74,0,0,1-4.55-2.88,6.44,6.44,0,0,1-1.54-4.58,8.08,8.08,0,0,1,2.28-5.82,7.59,7.59,0,0,1,5.69-2.37,11.21,11.21,0,0,1,4.07.85A8.66,8.66,0,0,1,276.48,120.33Z"/><path d="M290.5,122.65v22.67h-5.33V122.65h-5.5V118H296v4.63Z"/><path d="M323.42,122.65H315.2v6h7.71v4.64H315.2v12h-5.33V118h13.55Z"/><path d="M340.26,139.56h-9.49l-2.25,5.76h-5.61l10.65-28h4.13l10.36,28h-5.69Zm-1.49-4.34-3.4-9.93h-.07l-3,9.93Z"/><path d="M373,145.32l-2.17-16.95h-.07l-6.2,17.31h-1.84l-6-17.31h-.07l-2.43,16.95h-5.36l4.6-28h3.77l6.73,18,6.45-18h3.84l4.09,28Z"/><path d="M386.73,118v27.3H381.4V118Z"/><path d="M396.65,118v22.67h7.53v4.63H391.33V118Z"/><path d="M411.1,132.79,402.62,118h6.2l4.78,9.48,5.21-9.48H425l-8.62,14.77v12.53H411.1Z"/><path class="a" d="M0,179.28,4.64,152h7l5.54,14.59L23,152H30.1l4.13,27.31h-7.1l-2-15.72h-.08l-6.55,15.72H15.68L9.42,163.56H9.35L7.06,179.28Z"/><path class="a" d="M53.49,158H45.05v4.56h8v6h-8v4.71h8.44v6H38V152H53.49Z"/><path class="a" d="M58.6,179.28V152H68.67a13.57,13.57,0,0,1,9.8,4,13.57,13.57,0,0,1,0,19.38,13.58,13.58,0,0,1-9.8,4ZM65.7,158v15.28h1.59a8.3,8.3,0,0,0,5.63-1.92,7.12,7.12,0,0,0,2.23-5.72A7.34,7.34,0,0,0,73,160a7.82,7.82,0,0,0-5.65-2Z"/><path class="a" d="M93.66,152v27.31h-7.1V152Z"/><path class="a" d="M118.54,152.62v8.51a7.3,7.3,0,0,0-2.73-2.23,8.1,8.1,0,0,0-3.5-.78,6.85,6.85,0,0,0-5.25,2.18,7.62,7.62,0,0,0-2,5.39,7.29,7.29,0,0,0,2,5.35,7.17,7.17,0,0,0,5.34,2.08,7.73,7.73,0,0,0,3.37-.78,8.22,8.22,0,0,0,2.75-2.12v8.51a23.3,23.3,0,0,1-6.27,1.27A14.79,14.79,0,0,1,102,176a13.23,13.23,0,0,1-4.38-10.32,13.81,13.81,0,0,1,4-10,14.81,14.81,0,0,1,4.78-3.24,14.28,14.28,0,0,1,5.62-1.18A16.87,16.87,0,0,1,118.54,152.62Z"/><path class="a" d="M139.65,174.53h-9.78L128,179.28h-7.53L131,152h7.75L149,179.28h-7.57Zm-1.92-5.43-2.89-8.69h-.08l-2.93,8.69Z"/><path class="a" d="M159.75,152v21.29h8.52v6H152.66V152Z"/><path d="M200.39,152.84v6.37a7.48,7.48,0,0,0-6-2.9,7,7,0,0,0-5.85,2.83,10.44,10.44,0,0,0-2.19,6.59,10,10,0,0,0,2.22,6.43,7.08,7.08,0,0,0,5.78,2.77,7.37,7.37,0,0,0,3.28-.8,9,9,0,0,0,2.77-2.1v6.34A14.65,14.65,0,0,1,194.2,180a12.4,12.4,0,0,1-9.51-4.2,14.24,14.24,0,0,1-3.86-10,15.89,15.89,0,0,1,1.67-7.21,13.41,13.41,0,0,1,4.8-5.36,12.61,12.61,0,0,1,7-2A12.47,12.47,0,0,1,200.39,152.84Z"/><path d="M218.75,156.6H210v6h8.48v4.63H210v7.39h8.8v4.64H204.63V152h14.12Z"/><path d="M223,179.28v-28h3.84l14.38,19.09h.07V152h5.33v27.85H242.8l-14.38-19.09h-.07v18.55Z"/><path d="M260.83,156.6v22.68h-5.32V156.6H250V152h16.33v4.63Z"/><path d="M280.5,167.76l7.72,11.52h-6.45l-6.63-11h-.07v11h-5.32V152H277a10.2,10.2,0,0,1,6.7,2q2.43,2,2.43,6.21a8.61,8.61,0,0,1-1.49,4.94A5.93,5.93,0,0,1,280.5,167.76Zm-5.43-11.45v8.23h.69a6.29,6.29,0,0,0,3.71-.93,3.76,3.76,0,0,0,1.28-3.28c0-1.57-.42-2.63-1.28-3.18a6.73,6.73,0,0,0-3.68-.84Z"/><path d="M305.53,156.6h-8.8v6h8.47v4.63h-8.47v7.39h8.8v4.64H291.4V152h14.13Z"/></svg>