<svg width="1000" height="800" viewBox="0 0 1000 800" fill="none" xmlns="http://www.w3.org/2000/svg">
<g clip-path="url(#clip0)">
<path d="M113.615 215.941C119.475 206.601 128.65 205.17 135.803 206.133C142.007 206.972 144.676 213.245 140.494 218.004C135.679 223.506 130.562 225.185 130.136 231.058H131.745C140.274 231.058 163.012 230.329 167.51 230.192C167.369 228.196 166.851 226.245 165.983 224.442C164.002 220.315 158.651 217.027 154.415 215.459C151.581 214.414 146.739 213.066 145.9 209.654C143.988 201.855 154.043 198.278 159.339 198.127C169.298 197.824 178.116 206.862 181.885 214.785C184.202 219.514 185.797 224.564 186.617 229.765H187.992L195.544 229.6L195.393 230.288C201.927 268.611 257.651 276.067 284.035 284.32C310.418 292.574 333.253 306.247 340.791 318.806C352.648 338.518 353.68 351.517 353.68 351.517V353.759C359.677 351.109 365.638 348.619 371.562 346.29L372.112 346.166C373.68 342.933 377.229 340.182 383.406 338.201C388.65 336.769 394.08 336.134 399.514 336.317C405.772 336.317 407.478 335.258 410.216 340.072L414.59 338.697C414.411 338.38 414.232 338.078 414.067 337.761C415.259 335.991 416.643 334.358 418.194 332.892L417.85 331.874C398.922 293.275 371.961 286.48 356.788 279.877C342.386 273.646 317.571 265.351 303.031 258.418C291.917 253.109 278.422 240.151 274.502 228.981V228.472L290.073 228.362C304.696 228.362 322.564 228.101 358.852 228.101C395.139 228.101 366.294 177.604 347.077 158.456C335.357 146.777 320.941 137.079 305.067 140.573C278.436 146.474 285.617 172.569 286.112 194.922C274.433 176.957 245.271 112.388 214.678 118.949C196.507 122.842 203.99 154.178 209.176 165.444C193.495 146.089 124.922 117.973 99.667 133.076C72.1556 149.501 108.498 172.005 130.975 188.883C114.895 180.767 106.284 179.254 88.3323 181.139C73.4624 182.748 59.6242 186.38 56.5292 202.79C52.9114 221.938 68.3866 230.302 86.3653 230.302C92.8442 230.302 98.9792 230.494 107.178 230.687H108.553C108.636 226.106 110.149 221.416 113.615 215.941Z" fill="#ABDDDF" stroke="#ABDDDF" stroke-width="3" stroke-linecap="round" stroke-linejoin="round"/>
<path d="M943.606 148.208C937.939 125.194 888.817 125.868 872.159 136.103C887.855 122.347 899.753 95.0557 887.992 78.0399C876.231 61.0241 859.697 57.6815 835.253 60.4877C810.809 63.2938 792.459 73.8307 757.629 97.2704C775.759 64.2567 768.386 4.03429 720.984 3.8142C688.576 3.66289 657.006 17.9688 640.83 36.0988C634.956 23.4436 622.521 7.03304 598.6 1.90216C570.071 -4.21912 548.474 5.46488 539.698 16.2906C530.922 27.1163 539.78 51.1475 546.397 63.2938C553.013 75.4401 574.005 95.1933 602.671 111.673C576.825 99.8152 556.741 96.5413 533.618 95.1657C511.155 93.8865 491.869 94.6293 469.571 99.0724C462.047 100.572 447.136 102.938 446.572 112.47C445.802 125.538 477.605 129.239 487.234 131.605C467.192 127.203 408.634 130.697 406.928 159.762C405.896 176.228 422.321 181.964 431.95 183.34C432.924 180.188 434.616 177.305 436.893 174.918C439.17 172.531 441.97 170.705 445.073 169.584C462.831 162.995 483.767 164.494 500.962 172.06C509.078 175.637 513.246 182.776 515.13 190.727C546.768 189.764 578.269 189.351 609.811 188.98C619.577 218.788 613.401 249.408 601.984 275.338C587.017 309.356 546.383 312.368 519.89 333.249C521.611 335.296 522.513 337.908 522.421 340.581L526.231 341.723C530.784 337.39 538.047 336.963 544.87 338.366C550.813 339.591 559.272 340.499 561.033 346.015L561.363 345.918C567.325 347.426 573.198 349.262 578.957 351.421H579.053C591.832 337.569 602.438 326.55 614.13 315.903C654.214 279.217 684.078 248.844 731.246 223.837C759.569 208.815 772.114 200.92 787.397 185.609C814.592 184.468 841.787 182.858 868.995 180.479C888.322 178.883 951.557 180.465 943.606 148.208ZM717.752 187.618C716.72 199.792 712.992 212.089 704.147 220.631C693.252 230.866 681.77 240.456 669.758 249.353C660.019 256.616 649.042 265.516 640.871 274.389C649.702 263.384 655.232 245.928 660.707 232.943C667.241 217.468 671.189 202.529 671.367 189.035V188.416C689.154 188.209 697.311 187.962 715.083 187.59L717.752 187.618Z" fill="#ABDDDF" stroke="#ABDDDF" stroke-width="3" stroke-linecap="round" stroke-linejoin="round"/>
<path d="M659.62 785.289C663.293 795.633 683.294 800.104 689.401 788.893C696.705 775.508 677.379 767.682 666.016 768.424C654.187 742.013 643.801 722.549 615.684 707.789C580.195 689.15 543.66 680.402 502.791 680.47C460.149 680.553 415.622 682.066 373.378 686.771C342.538 690.196 312.179 699.426 287.817 717.556C274.062 727.776 256.785 748.657 259.329 766.003C249.604 765.261 239.164 780.694 245.876 787.559C252.121 793.927 264.612 788.315 270.98 785.289C314.105 797.119 369.636 796.293 415.071 798.604C476.105 801.768 537.923 798.948 598.421 796.128C614.529 795.385 649.207 798.508 659.62 785.289Z" fill="#FAB550" stroke="#FAB550" stroke-width="4" stroke-linecap="round" stroke-linejoin="round"/>
<path d="M307.323 756.374C354.491 729.069 412.829 717.859 467.824 717.859C504.442 717.859 540.578 721.628 575.587 732.371C591.351 737.213 608.6 747.86 622.053 756.058" stroke="#442257" stroke-width="4" stroke-linecap="round" stroke-linejoin="round"/>
<path d="M428.332 692.796C442.694 694.923 456.693 699.029 469.929 704.997" stroke="#442257" stroke-width="4" stroke-linecap="round" stroke-linejoin="round"/>
<path d="M477.797 693.346C484.345 694.873 490.04 698.064 496.092 700.829" stroke="#442257" stroke-width="4" stroke-linecap="round" stroke-linejoin="round"/>
<path d="M667.984 782.18C669.74 784.473 672.207 786.118 674.999 786.857" stroke="#442257" stroke-width="4" stroke-linecap="round" stroke-linejoin="round"/>
<path d="M256.482 782.18C257.465 781.958 258.389 781.53 259.195 780.926C260.001 780.321 260.67 779.553 261.159 778.672" stroke="#442257" stroke-width="4" stroke-linecap="round" stroke-linejoin="round"/>
<path d="M258.614 766.98C258.972 773.363 261.489 781.066 267.968 783.349" stroke="#442257" stroke-width="4" stroke-linecap="round" stroke-linejoin="round"/>
<path d="M662.921 785.839C666.966 782.153 669.538 777.682 668.424 772.249" stroke="#442257" stroke-width="4" stroke-linecap="round" stroke-linejoin="round"/>
<path d="M475.019 355.547L470.892 351.517L468.292 354.268C465.967 357.844 462.185 362.742 457.37 365.575C460.947 375.933 476.821 381.532 486.257 367.075C482.009 363.755 478.229 359.878 475.019 355.547V355.547Z" fill="#F15D4A" stroke="#F15D4A" stroke-width="4" stroke-linecap="round" stroke-linejoin="round"/>
<path d="M468.498 433.212C468.84 434.184 469.079 435.189 469.214 436.211V435.825C470.589 432.607 477.261 423.542 485.652 411.299L486.945 408.548C486.353 401.794 483.698 395.453 481.759 390.033C480.48 386.498 476.559 375.039 476.559 375.039L466.022 374.503C464.165 381.38 455.018 401.876 452.679 409.965C458.677 417.475 466.105 426.637 468.498 433.212Z" fill="#F15D4A" stroke="#F15D4A" stroke-width="4" stroke-linecap="round" stroke-linejoin="round"/>
<path d="M513.878 325.684C513.878 325.684 514.291 291.294 514.511 284.719C519.436 288.97 526.974 289.162 530.413 278.969C531.926 274.526 532.449 269.079 528.638 266.011C524.828 262.944 520.536 263.645 516.602 264.636C516.808 258.446 516.974 252.256 516.987 245.969C516.987 226.959 517.097 219.93 516.437 200.864C516.038 189.337 512.434 177.163 500.962 172.115C483.767 164.549 462.831 163.05 445.073 169.639C433.256 174.013 430.464 184.963 429.281 196.449C427.823 210.548 427.19 214.18 426.53 228.376C425.993 239.683 425.87 251.032 425.938 262.407C417.162 260.33 406.832 261.706 408.125 275.008C409.5 288.763 418.827 287.388 426.186 281.775C426.502 298.571 426.984 308.599 426.929 325.381" stroke="#442257" stroke-width="4" stroke-linecap="round" stroke-linejoin="round"/>
<path d="M457.975 262.407C461.989 265.048 466.708 266.41 471.511 266.314C477.357 266.314 482.598 264.209 484.111 262.944" stroke="#442257" stroke-width="4" stroke-linecap="round" stroke-linejoin="round"/>
<path d="M414.15 337.734C416.997 333.167 422.926 329.274 425.773 324.748C435.471 332.561 470.947 349.756 470.947 349.756C470.947 349.756 489.352 340.127 496.876 336.482C502.846 333.607 508.184 329.535 514.112 326.509C518.308 331.227 523.466 336.138 522.366 341.296C521.1 347.294 516.575 353.057 513.878 358.463C511.059 364.159 506.121 368.524 500.123 370.624C486.766 375.273 470.919 349.756 470.919 349.756C470.919 349.756 457.439 377.653 439.873 364.117C430.657 356.95 419.652 348.27 414.15 337.734Z" stroke="#442257" stroke-width="4" stroke-linecap="round" stroke-linejoin="round"/>
<path d="M490.164 485.098C491.058 480.27 497.867 469.692 500.508 465.483C507.647 454.066 514.649 443.474 522.242 432.373C529.835 421.272 540.344 409.621 542.752 396.195C543.88 389.826 540.785 376.511 532.6 383.182C540.853 375.878 560.827 361.751 561.377 348.669C561.707 340.815 551.652 339.838 544.87 338.449C536.273 336.688 526.988 337.802 523.287 346.001C517.001 360.1 514.566 374.269 510.109 388.644C505.296 403.458 501.396 418.553 498.431 433.845C492.557 466.281 488.238 498.882 483.382 531.4C482.007 540.314 481.305 558.636 480.851 567.715" stroke="#442257" stroke-width="4" stroke-linecap="round" stroke-linejoin="round"/>
<path d="M446.104 568.224C445.251 564.097 444.619 532.831 444.192 525.086C443.312 508.978 442.817 492.898 441.07 476.762C438.318 451.328 432.28 426.747 426.42 401.876C423.146 388.011 420.697 373.897 416.406 360.252C414.466 354.075 413.751 346.675 410.752 340.994C407.753 335.313 406.185 336.331 399.569 336.358C394.135 336.175 388.705 336.81 383.461 338.243C352.648 348.064 387.45 377.419 403.695 388.011C393.062 385.989 380.668 389.386 385.029 400.597C391.205 416.43 400.752 426.444 410.271 440.172C420.67 455.194 434.123 481.439 442.789 497.946" stroke="#442257" stroke-width="4" stroke-linecap="round" stroke-linejoin="round"/>
<path d="M533.618 416.402C533.618 416.402 550.001 417.957 559.176 419.621" stroke="#442257" stroke-width="4" stroke-linecap="round" stroke-linejoin="round"/>
<path d="M413.875 342.534C421.935 361.187 435.113 386.222 446.957 402.647C452.611 410.487 465.238 424.271 468.498 433.212C470.19 437.82 469.393 444.932 469.145 449.719C468.677 459.196 467.522 468.427 467.04 477.904C466.243 493.696 464.812 509.253 463.299 524.935C462.611 532.047 463.464 533.656 457.398 534.124C453.271 534.44 445.774 532.611 444.495 532.748" stroke="#442257" stroke-width="4" stroke-linecap="round" stroke-linejoin="round"/>
<path d="M469.172 435.825C472.323 428.631 501.416 392.468 518.156 356.648" stroke="#442257" stroke-width="4" stroke-linecap="round" stroke-linejoin="round"/>
<path d="M463.877 532.143C465.72 534.275 474.881 533.615 481.608 533.518" stroke="#442257" stroke-width="4" stroke-linecap="round" stroke-linejoin="round"/>
<path d="M457.797 472.622V471.246" stroke="#442257" stroke-width="4" stroke-linecap="round" stroke-linejoin="round"/>
<path d="M456.517 497.877L456.586 496.502" stroke="#442257" stroke-width="4" stroke-linecap="round" stroke-linejoin="round"/>
<path d="M455.238 523.105L455.307 521.73" stroke="#442257" stroke-width="4" stroke-linecap="round" stroke-linejoin="round"/>
<path d="M561.336 346.001C587.678 352.521 617.362 368.01 637.652 384.654C648.657 393.651 655.672 399.222 667.213 407.31C676.567 413.858 690.144 421.533 691.038 434.821C691.189 430.365 689.484 419.869 696.224 419.773C703.679 419.663 705.647 435.055 706.967 439.856C705.99 431.603 705.509 411.533 719.347 423.665C702.153 418.163 742.732 361.531 749.981 347.046C757.23 332.562 770.422 312.451 770.422 312.451C775.085 312.313 800.96 328.958 807.562 332.727C818.374 339.027 830.947 345.107 840.218 353.36C829.874 377.9 812.707 409.249 798.718 432.001C787.479 450.049 766.295 488.716 747.877 500.463C730.366 511.702 713.955 509.666 694.766 507.672C683.197 506.461 671.23 497.657 661.064 491.797C649.289 485.03 612.713 465.813 603.607 459.953C596.729 455.551 581.735 447.133 581.735 447.133C581.735 447.133 581.515 467.065 581.515 476.432C581.515 482.98 580.814 490.188 580.662 496.557" stroke="#442257" stroke-width="4" stroke-linecap="round" stroke-linejoin="round"/>
<path d="M536.713 514.989C549.588 511.138 563.578 494.659 578.489 497.341C596.853 500.656 563.358 520.561 558.351 522.816C563.743 516.241 579.988 506.819 588.544 511.606C588.943 515.87 586.137 517.314 583.62 520.217C578.118 526.558 572.313 531.414 568.186 539.062" stroke="#442257" stroke-width="4" stroke-linecap="round" stroke-linejoin="round"/>
<path d="M774.755 313.097C774.755 313.097 782.445 299.342 787.837 292.698C803.601 296.095 838.1 321.131 841.36 325.821L830.631 344.914" stroke="#442257" stroke-width="4" stroke-linecap="round" stroke-linejoin="round"/>
<path d="M418.84 566.821C413.82 571.195 409.858 577.399 405.8 581.952C397.299 591.581 388.509 600.963 379.788 610.372C373.116 617.566 366.844 625.186 359.773 632.009C356.39 635.269 348.012 644.169 345.289 648.379C342.565 652.588 364.423 649.424 369.155 644.087C382.278 629.327 394.782 614.608 407.671 599.697C411.123 595.722 430.491 572.97 437.232 565.047C437.448 564.791 437.59 564.48 437.641 564.149C437.692 563.818 437.651 563.479 437.521 563.17C437.392 562.861 437.179 562.594 436.907 562.398C436.635 562.203 436.314 562.086 435.98 562.062C433.311 561.794 430.625 561.73 427.947 561.869C424.545 562.732 421.414 564.435 418.84 566.821V566.821Z" fill="#442257" stroke="#442257" stroke-width="4" stroke-linecap="round" stroke-linejoin="round"/>
<path d="M379.898 631.927C374.753 644.307 378.522 665.05 392.76 662.478C401.907 660.827 404.438 637.099 394.699 635.627C388.647 634.705 389.912 642.285 391.865 645.93C400.366 661.832 417.63 649.52 411.399 634.788C408.51 627.91 397.395 621.39 391.068 619.024" stroke="#442257" stroke-width="4" stroke-linecap="round" stroke-linejoin="round"/>
<path d="M436.64 567.825C467.027 569.366 530.592 567.825 530.592 567.825" stroke="#442257" stroke-width="4" stroke-linecap="round" stroke-linejoin="round"/>
<path d="M733.97 506.887C751.962 507.355 779.24 508.951 795.458 515.677C812.226 522.555 825.225 532.872 831.979 550.534C840.452 572.708 837.179 598.679 824.62 618.68C817.742 629.602 808.305 639.314 795.375 641.927C781.055 644.83 765.965 648.145 751.233 648.681C709.471 650.208 667.612 650.923 625.795 653C589.356 654.802 551.321 654.789 512.888 650.634C514.181 630.744 519.986 614.87 522.806 600.509C524.932 589.667 527.758 578.975 531.266 568.499C532.641 564.689 533.797 560.246 537.896 558.581C544.485 555.968 558.529 556.656 565.848 556.325C596.22 554.95 625.864 551.277 656.195 550.122C688.246 548.884 735.373 544.619 764.714 559.929C759.885 558.912 750.229 552.185 752.581 547.797C754.933 543.409 763.283 546.229 768.771 546.985" stroke="#442257" stroke-width="4" stroke-linecap="round" stroke-linejoin="round"/>
<path d="M587.031 516.86C587.031 516.86 640.348 510.739 655.342 509.556C668.603 508.511 677.172 507.383 690.46 506.887" stroke="#442257" stroke-width="4" stroke-linecap="round" stroke-linejoin="round"/>
<path d="M412.086 636.741C427.674 638.891 443.396 639.921 459.131 639.822C474.097 639.822 512.558 641.831 512.558 641.831" stroke="#442257" stroke-width="4" stroke-linecap="round" stroke-linejoin="round"/>
<path d="M360.929 447.449C356.665 446.858 355.097 452.745 355.055 457.312C357.683 456.72 360.695 455.207 363.721 455.73C352.841 457.711 354.257 470.462 353.845 479.445C353.556 485.855 353.308 496.887 356.94 502.156" stroke="#442257" stroke-width="4" stroke-linecap="round" stroke-linejoin="round"/>
<path d="M385.579 512.101C379.554 509.033 348.7 495.181 346.375 506.035C344.904 512.912 355.193 516.448 359.952 518.635C368.77 522.761 374.905 528.071 382.704 534.082C387.849 538.4 392.545 543.225 396.721 548.485" stroke="#442257" stroke-width="4" stroke-linecap="round" stroke-linejoin="round"/>
<path d="M371.617 346.29C342.926 357.573 315.381 371.576 289.358 388.107C278.807 394.847 269.921 402.949 266.331 415.44C267.789 411.409 272.04 402.454 267.94 399.029C263.429 395.287 256.633 400.886 254.487 404.696C252.342 408.507 254.749 413.362 259.398 410.336C264.612 406.925 266.359 395.356 263.718 390.803C259.88 384.159 254.556 375.466 250.182 369.399C246.124 363.773 241.557 358.395 237.871 352.521C231.749 342.782 204.719 300.91 204.719 300.91C204.719 300.91 169.491 321.227 154.8 330.787C148.912 334.625 136.739 341.695 133.066 346.744C140.714 362.164 147.468 377.666 156.065 392.55C167.606 412.523 178.817 431.726 189.932 451.933C196.088 463.064 203.082 473.71 210.854 483.778C216.783 491.44 222.203 498.414 228.984 504.879C238.366 513.834 260.843 516.021 272.466 512.211C286.222 507.713 299.62 495.113 311.381 486.9C321.01 480.16 350.97 457.257 355.482 453.378" stroke="#442257" stroke-width="4" stroke-linecap="round" stroke-linejoin="round"/>
<path d="M138.829 339.013C138.829 339.013 129.668 323.703 127.165 316.509C139.737 308.874 148.692 302.134 161.554 294.775C170.316 289.754 178.322 285.888 186.933 281.225C190.688 286.549 199.231 302.395 199.231 302.395" stroke="#442257" stroke-width="4" stroke-linecap="round" stroke-linejoin="round"/>
<path d="M178.418 282.587C176.864 279.836 170.371 269.863 172.503 266.741C175.736 262.009 181.156 256.823 183.714 251.155C189.134 239.105 187.648 226.89 181.899 214.813C178.13 206.89 169.312 197.852 159.353 198.155C154.057 198.306 144.002 201.882 145.914 209.682C146.753 213.093 151.595 214.441 154.428 215.487C158.665 217.055 164.057 220.301 165.997 224.469C170.413 233.796 165.075 242.462 156.148 247.015C146.615 251.884 134.882 248.831 131.388 238.376C127.192 225.872 134.139 225.267 140.508 218.004C144.634 213.245 142.021 207 135.817 206.133C128.664 205.17 119.489 206.601 113.629 215.941C107.769 225.281 107.329 232.448 110.341 240.784" stroke="#442257" stroke-width="4" stroke-linecap="round" stroke-linejoin="round"/>
<path d="M94.5912 253.356C93.2156 238.555 112.955 239.601 121.332 243.947C125.143 245.928 132.158 249.793 134.001 254.663C135.845 259.533 134.194 267.896 123.437 263.921" stroke="#442257" stroke-width="4" stroke-linecap="round" stroke-linejoin="round"/>
<path d="M98.7454 270.097C108.306 275.53 133.781 271.28 119.695 258.46C113.395 252.723 85.0035 250.509 89.0201 266.039C79.4737 261.761 50.3804 261.706 58.1523 274.485C62.6229 281.803 72.1144 279.244 79.5562 279.547C87.2594 279.863 103.821 283.798 109.984 288.433C116.49 293.33 125.583 300.043 133.506 311.818" stroke="#442257" stroke-width="4" stroke-linecap="round" stroke-linejoin="round"/>
<path d="M792.693 291.322C794.068 288.433 801.537 276.933 799.268 273.893C795.843 269.313 791.551 264.361 788.759 258.762C782.83 246.946 783.806 234.676 789.047 222.378C792.472 214.29 800.918 204.909 810.878 204.771C816.174 204.771 826.367 207.866 824.785 215.776C824.083 219.215 819.282 220.769 816.531 221.938C812.405 223.685 807.15 227.152 805.348 231.402C801.331 240.894 807.026 249.285 816.132 253.508C825.858 257.964 837.454 254.429 840.521 243.879C844.194 231.196 837.234 230.879 830.562 223.892C826.188 219.311 828.595 212.887 834.689 211.842C841.8 210.576 851.031 211.621 857.276 220.714C863.521 229.807 864.25 236.891 861.595 245.392" stroke="#442257" stroke-width="4" stroke-linecap="round" stroke-linejoin="round"/>
<path d="M877.882 257.263C878.638 242.42 858.968 244.305 850.783 249.009C847.055 251.142 840.205 255.296 838.568 260.234C836.931 265.172 838.939 273.467 849.572 269.038" stroke="#442257" stroke-width="4" stroke-linecap="round" stroke-linejoin="round"/>
<path d="M874.443 274.127C865.116 279.96 839.489 276.782 853.011 263.37C859.078 257.373 887.401 253.989 883.989 269.657C893.618 268.474 922.423 263.728 915.173 276.81C911.047 284.32 901.418 282.147 894.003 282.766C886.328 283.399 869.945 288.021 863.975 292.918C857.688 298.09 847.55 310.497 840.122 322.52" stroke="#442257" stroke-width="4" stroke-linecap="round" stroke-linejoin="round"/>
<path d="M238.311 510.725C220.635 510.725 204.32 508.222 196.631 508.772C187.511 509.432 150.962 512.032 141.608 513.917C111.772 519.887 99.1581 539.709 95.1552 566.188C93.0368 580.205 91.9226 597.372 99.4332 610.206C106.545 622.284 124.4 627.401 137.083 630.235C156.34 634.554 176.479 635.173 196.232 636.177C236.88 638.241 353.157 639.038 353.157 639.038" stroke="#442257" stroke-width="4" stroke-linecap="round" stroke-linejoin="round"/>
<path d="M355.633 516.709C347.792 514.481 318.341 512.582 295.892 511.619C290.747 511.399 284.97 511.275 276.882 511.138" stroke="#442257" stroke-width="4" stroke-linecap="round" stroke-linejoin="round"/>
<path d="M191.431 532.294C185.448 534.454 178.872 532.954 172.971 531.345C175.557 532.308 185.585 534.096 186.245 539.241C187.497 548.87 164.511 547.219 159.325 551.002C164.594 551.731 170.633 548.87 175.75 547.673C182.628 546.077 189.368 545.39 196.301 544.275C209.369 542.364 222.602 541.843 235.78 542.721C282.233 544.963 302.495 545.926 348.728 550.424C357.105 551.25 365.661 552.185 373.79 553.684C375.166 563.313 374.863 578.651 374.877 589.119C374.877 596.96 373.171 610.33 372.786 618.171" stroke="#442257" stroke-width="4" stroke-linecap="round" stroke-linejoin="round"/>
<path d="M375.359 567.454C375.359 567.454 405.47 568.389 416.062 569.517" stroke="#442257" stroke-width="4" stroke-linecap="round" stroke-linejoin="round"/>
<path d="M487.66 236.904C490.563 240.77 498.362 240.123 500.632 235.969" stroke="#442257" stroke-width="4" stroke-linecap="round" stroke-linejoin="round"/>
<path d="M431.95 238.28C431.95 250.055 452.776 258.473 461.882 245.846C471.731 232.2 459.832 217.179 444.233 221.305C438.456 222.832 432.032 226.491 431.95 238.28Z" stroke="#442257" stroke-width="4" stroke-linecap="round" stroke-linejoin="round"/>
<path d="M510.357 238.486C510.357 250.275 489.407 258.57 480.37 245.901C470.603 232.145 482.584 217.248 498.169 221.457C503.919 223.011 510.44 226.711 510.357 238.486Z" stroke="#442257" stroke-width="4" stroke-linecap="round" stroke-linejoin="round"/>
<path d="M431.95 235.584L422.321 236.299" stroke="#442257" stroke-width="4" stroke-linecap="round" stroke-linejoin="round"/>
<path d="M465.967 232.97C469.561 232.106 473.309 232.106 476.903 232.97" stroke="#442257" stroke-width="4" stroke-linecap="round" stroke-linejoin="round"/>
<path d="M454.041 236.808C451.111 240.66 443.326 239.972 441.07 235.804" stroke="#442257" stroke-width="4" stroke-linecap="round" stroke-linejoin="round"/>
<path d="M510.275 235.79L519.904 236.561" stroke="#442257" stroke-width="4" stroke-linecap="round" stroke-linejoin="round"/>
<path d="M459.076 447.449V446.074" stroke="#442257" stroke-width="4" stroke-linecap="round" stroke-linejoin="round"/>
<path d="M578.2 447.628C579.62 447.917 581.097 447.703 582.377 447.023C583.657 446.343 584.66 445.239 585.216 443.9" stroke="#442257" stroke-width="4" stroke-linecap="round" stroke-linejoin="round"/>
<path d="M427.176 217.509C437.012 211.47 440.932 191.222 440.698 184.578C446.751 193.643 461.524 192.226 471.483 192.226C482.488 192.226 493.671 191.263 503.122 186.173C503.713 193.877 508.5 209.902 515.006 217.509" stroke="#442257" stroke-width="4" stroke-linecap="round" stroke-linejoin="round"/>
</g>
<defs>
<clipPath id="clip0">
<rect width="1000" height="800" fill="white"/>
</clipPath>
</defs>
</svg>
