<svg width="1000" height="800" viewBox="0 0 1000 800" fill="none" xmlns="http://www.w3.org/2000/svg">
<g clip-path="url(#clip0)">
<path d="M774.644 52.8453C772.247 49.3423 773.036 40.3123 776.195 37.9722C779.927 35.2015 788.943 36.5366 793.35 36.5366C796.825 36.5366 801.261 36.4361 803.687 40.3266C805.74 43.6429 805.209 49.127 805.209 49.127" stroke="#442257" stroke-width="4" stroke-linecap="round" stroke-linejoin="round"/>
<path d="M776.195 37.9723C767.983 38.2737 767.438 34.4693 769.017 31.6124C771.63 26.8605 780.588 28.1526 791.915 28.1813C813.693 28.2531 807.319 37.599 804.534 39.1638" stroke="#442257" stroke-width="4" stroke-linecap="round" stroke-linejoin="round"/>
<path d="M871.032 96.3302C866.163 91.298 859.906 87.8296 853.058 86.367C849.943 82.4621 846.942 78.0978 845.047 75.686C830.117 56.6927 804.505 44.1023 779.511 47.5765C760.59 50.2467 740.634 62.2055 734.835 80.5958C732.351 88.4486 731.676 97.1485 735.208 104.786C737.404 109.552 743.161 122.128 755.134 124.885C756.833 119.894 758.783 114.992 760.977 110.198V110.198C772.979 116.687 794.226 113.787 800.615 104.456C801.806 117.376 820.225 113.629 829.686 111.318C829.686 116.616 834.926 122.803 839.147 125.674C840.827 126.796 842.628 127.726 844.516 128.445V128.445C843.238 133.47 841.458 138.81 839.448 144.309C854.135 147.926 872.468 136.93 876.344 119.472C878.038 111.677 876.243 102.231 871.032 96.3302Z" fill="#ABDDDF" stroke="#ABDDDF" stroke-width="4" stroke-linecap="round" stroke-linejoin="round"/>
<path d="M633.738 351.268C638.619 341.376 642.653 326.661 652.947 321.881" stroke="#442257" stroke-width="4" stroke-linecap="round" stroke-linejoin="round"/>
<path d="M698.714 275.237C686.354 275.442 674.108 277.643 662.451 281.755C642.582 289.034 621.679 307.84 607.897 323.388C593.153 340.084 570.341 358.69 563.249 362.624" stroke="#442257" stroke-width="4" stroke-linecap="round" stroke-linejoin="round"/>
<path d="M108.301 741.814C102.874 761.583 90.9728 800 90.9728 800H68.1034C68.1034 800 71.635 761.066 73.5875 742.116" stroke="#442257" stroke-width="4" stroke-linecap="round" stroke-linejoin="round"/>
<path d="M381.284 741.814C386.711 761.583 398.612 800 398.612 800H421.496C421.496 800 417.979 758.195 416.012 739.244" stroke="#442257" stroke-width="4" stroke-linecap="round" stroke-linejoin="round"/>
<path d="M317.901 741.814C320.428 759.444 324.017 800 324.017 800H301.22C298.621 788.73 283.188 741.814 283.188 741.814" stroke="#442257" stroke-width="4" stroke-linecap="round" stroke-linejoin="round"/>
<path d="M840.468 737.507C845.894 757.276 859.245 800 859.245 800H882.101C882.101 800 878.583 758.195 876.631 739.244" stroke="#442257" stroke-width="4" stroke-linecap="round" stroke-linejoin="round"/>
<path d="M572.552 737.507C570.025 755.137 565.001 800 565.001 800H587.798C590.397 788.73 607.28 737.507 607.28 737.507" stroke="#442257" stroke-width="4" stroke-linecap="round" stroke-linejoin="round"/>
<path d="M932.591 302.859C917.474 296.944 894.992 296.642 874.104 296.642H873.099C872.582 301.294 871.836 306.29 871.276 311.587C866.797 353.78 850.474 397.079 837.122 437.233V438.367H572.652C560.134 437.62 543.595 439.042 534.479 448.818C526.397 457.432 530.101 471.458 530.833 482.799C532.168 503.472 535.786 524.303 538.958 544.919L540.652 555.629C531.938 557.294 529.971 568.549 519.893 568.449C513.16 568.449 510.117 562.893 504.188 561.371C485.381 556.562 479.208 580.522 462.138 578.843C452.649 577.924 448.859 572.87 438.379 579.646C435.019 581.829 431.617 588.375 428.803 589.696C425.185 591.332 371.048 594.103 360.941 595.323C357.41 595.754 349.614 595.094 346.585 592.452C343.556 589.811 340.599 573.646 338.89 557.265C337.182 540.885 331.425 519.81 309.431 518.704C287.438 517.599 235.21 515.532 196.017 519.322C150.522 523.729 37.4384 499.797 35.7157 572.325C34.7825 610.986 33.7202 650.537 40.1948 688.94C42.2478 701.201 45.0042 719.72 53.7471 731.047C55.7191 733.65 58.1521 735.869 60.9252 737.594C70.9745 743.767 85.8906 741.369 96.988 741.369H166.242C237.119 741.369 305.756 740.422 376.618 740.852C387.041 740.852 397.42 740.063 407.269 736.847H874.621C899.687 736.847 903.721 710.03 910.511 685.954C921.25 648.212 925.715 609.048 931.543 570.214C936.582 536.635 942.196 502.396 949.847 469.348C958.045 433.945 959.811 398.371 963.414 362.322C966.127 335.404 958.949 313.123 932.591 302.859Z" fill="#FAB550" stroke="#FAB550" stroke-width="4" stroke-linecap="round" stroke-linejoin="round"/>
<g opacity="0.4">
<path opacity="0.4" d="M746.707 174.084L752.349 181.994" stroke="#F15D4A" stroke-width="4" stroke-linecap="round" stroke-linejoin="round"/>
<path opacity="0.4" d="M755.177 167.293L768.744 185.942" stroke="#F15D4A" stroke-width="4" stroke-linecap="round" stroke-linejoin="round"/>
<path opacity="0.4" d="M766.49 166.173L780.616 186.516" stroke="#F15D4A" stroke-width="4" stroke-linecap="round" stroke-linejoin="round"/>
<path opacity="0.4" d="M781.736 166.733L795.877 188.77" stroke="#F15D4A" stroke-width="4" stroke-linecap="round" stroke-linejoin="round"/>
<path opacity="0.4" d="M798.131 170.121L806.601 184.248" stroke="#F15D4A" stroke-width="4" stroke-linecap="round" stroke-linejoin="round"/>
</g>
<path d="M533.388 448.474C529.081 435.194 543.653 412.382 559.229 405.491C576.744 397.782 604.437 386.828 624.435 388.451" stroke="#442257" stroke-width="4" stroke-linecap="round" stroke-linejoin="round"/>
<path d="M680.008 370.864V370.476C669.858 343.788 604.538 353.909 583.822 357.384C540.107 364.72 504.862 396.145 460.904 408.678C453.151 410.904 424.281 412.985 406.68 422.733C401.785 422.733 396.932 423.264 392.209 423.494C376.547 424.255 357.525 428.619 344.331 430.371C334.741 429.409 323.931 429.926 314.312 430.371C305.498 430.773 253.126 436.673 253.126 436.673C264.051 439.544 272.364 451.029 276.814 462.04C282.93 477.057 285.428 498.677 284.365 515.158V517.513C294.415 517.814 303.158 518.216 309.403 518.532C331.396 519.638 337.153 540.698 338.862 557.093C340.57 573.488 343.412 589.466 346.556 592.28C349.7 595.094 357.367 595.639 360.913 595.151C370.962 593.931 425.157 591.16 428.774 589.524C431.646 588.246 434.991 581.699 438.35 579.474C448.83 572.698 452.62 577.751 462.11 578.67C479.179 580.35 485.352 556.389 504.159 561.199C510.088 562.721 513.132 568.233 519.865 568.276C529.914 568.276 531.953 557.409 540.667 555.743" stroke="#442257" stroke-width="4" stroke-linecap="round" stroke-linejoin="round"/>
<path d="M561.957 689.816C559.359 668.282 542.878 570.258 538.987 544.818C535.814 524.203 532.197 503.372 530.862 482.699C530.129 471.358 526.426 457.389 534.508 448.718C543.624 438.941 560.163 437.52 572.681 438.267H855.211C882.876 438.267 883.163 474.789 885.718 492.519" stroke="#442257" stroke-width="4" stroke-linecap="round" stroke-linejoin="round"/>
<path d="M837.123 437.161C850.474 396.964 866.797 353.708 871.276 311.516C873.745 288.302 879.732 270.672 854.049 264.269C844.574 261.9 826.068 259.474 818.158 259.718" stroke="#442257" stroke-width="4" stroke-linecap="round" stroke-linejoin="round"/>
<path d="M780.616 306.06C775.218 324.192 756.498 338.52 775.348 356.752C760.015 345.497 744.152 356.048 744.511 375.846C741.453 361.26 711.807 368.28 702.562 369.127C683.224 370.893 664.992 370.778 646.687 377.109C632.46 382.033 621.664 385.005 619.554 400.438C618.348 409.21 615.147 428.131 620.114 434.893" stroke="#442257" stroke-width="4" stroke-linecap="round" stroke-linejoin="round"/>
<path d="M821.374 371.051C822.826 370.495 824.339 370.114 825.882 369.917" stroke="#442257" stroke-width="4" stroke-linecap="round" stroke-linejoin="round"/>
<path d="M795.734 349.473C794.367 348.501 792.927 347.637 791.427 346.889" stroke="#442257" stroke-width="4" stroke-linecap="round" stroke-linejoin="round"/>
<path d="M802.653 333.007C803.931 331.513 804.723 329.665 804.922 327.709" stroke="#442257" stroke-width="4" stroke-linecap="round" stroke-linejoin="round"/>
<path d="M847.301 301.538C848.283 301.411 849.215 301.032 850.008 300.439C850.8 299.845 851.426 299.057 851.823 298.15" stroke="#442257" stroke-width="4" stroke-linecap="round" stroke-linejoin="round"/>
<path d="M835.988 283.449V281.195" stroke="#442257" stroke-width="4" stroke-linecap="round" stroke-linejoin="round"/>
<path d="M860.853 278.927C862.057 278.815 863.22 278.432 864.256 277.807" stroke="#442257" stroke-width="4" stroke-linecap="round" stroke-linejoin="round"/>
<path d="M851.823 350.134C853.776 349.545 855.57 349.789 856.331 351.268" stroke="#442257" stroke-width="4" stroke-linecap="round" stroke-linejoin="round"/>
<path d="M816.407 307.855L813.665 304.266" stroke="#442257" stroke-width="4" stroke-linecap="round" stroke-linejoin="round"/>
<path d="M772.706 436.041C765.815 414.837 783.301 409.525 799.854 408.032C819.953 406.209 828.81 382.909 849.555 389.7" stroke="#442257" stroke-width="4" stroke-linecap="round" stroke-linejoin="round"/>
<path d="M673.232 423.609C671.778 424.155 670.265 424.531 668.724 424.729" stroke="#442257" stroke-width="4" stroke-linecap="round" stroke-linejoin="round"/>
<path d="M646.113 402.132C645.453 401.112 645.063 399.941 644.979 398.73" stroke="#442257" stroke-width="4" stroke-linecap="round" stroke-linejoin="round"/>
<path d="M661.934 391.953V387.431" stroke="#442257" stroke-width="4" stroke-linecap="round" stroke-linejoin="round"/>
<path d="M707.141 406.654V410.042" stroke="#442257" stroke-width="4" stroke-linecap="round" stroke-linejoin="round"/>
<path d="M744.439 400.998C745.404 400.72 746.421 400.679 747.405 400.876C748.39 401.073 749.312 401.504 750.095 402.132" stroke="#442257" stroke-width="4" stroke-linecap="round" stroke-linejoin="round"/>
<path d="M767.05 376.075L769.304 373.807" stroke="#442257" stroke-width="4" stroke-linecap="round" stroke-linejoin="round"/>
<path d="M724.096 379.521C724.096 377.382 724.871 375.573 726.364 374.999" stroke="#442257" stroke-width="4" stroke-linecap="round" stroke-linejoin="round"/>
<path d="M577.562 415.383C565.79 415.268 544.4 429.222 543.653 442.2" stroke="#442257" stroke-width="4" stroke-linecap="round" stroke-linejoin="round"/>
<path d="M788.527 278.109C766.476 293.369 747.195 319.943 736.313 344.305C721.397 341.721 701.356 340.917 685.492 340.07C688.808 318.938 713.602 287.612 730.456 275.625C741.553 267.729 753.225 271.979 766.246 275.252C782.038 279.228 792.877 279.228 806.601 269.423C816.952 262.044 823.01 255.239 823.599 241.07C824.13 228.264 816.105 224.847 804.103 225.809C788.527 227.058 771.314 233.978 755.464 237.122C741.74 239.835 729.982 237.337 716.703 238.241C702.921 239.189 695.929 257.45 698.04 271.074C700.537 287.167 709.295 281.195 721.153 282.315" stroke="#442257" stroke-width="4" stroke-linecap="round" stroke-linejoin="round"/>
<path d="M727.699 345.698C725.886 348.379 724.595 351.38 723.895 354.541" stroke="#442257" stroke-width="4" stroke-linecap="round" stroke-linejoin="round"/>
<path d="M710.544 354.656C711.072 351.096 712.219 347.656 713.932 344.492" stroke="#442257" stroke-width="4" stroke-linecap="round" stroke-linejoin="round"/>
<path d="M701.758 342.367C699.49 346.889 698.327 353.292 697.58 356.608" stroke="#442257" stroke-width="4" stroke-linecap="round" stroke-linejoin="round"/>
<path d="M689.34 342.066C687.775 345.176 686.488 348.419 685.492 351.756" stroke="#442257" stroke-width="4" stroke-linecap="round" stroke-linejoin="round"/>
<path d="M130.553 517.254C155.82 517.254 179.838 520.714 196.046 519.149C221.887 516.637 257.778 516.695 282.614 517.341" stroke="#442257" stroke-width="4" stroke-linecap="round" stroke-linejoin="round"/>
<path d="M428.803 589.581C430.885 616.657 431.33 662.353 431.359 689.199C431.359 707.417 433.297 723.467 418.926 733.014" stroke="#442257" stroke-width="4" stroke-linecap="round" stroke-linejoin="round"/>
<path d="M326.257 734.32C328.956 667.55 330.478 595.209 316.078 533.233" stroke="#442257" stroke-width="4" stroke-linecap="round" stroke-linejoin="round"/>
<path d="M451.816 442.2C442.155 431.49 421.525 423.882 406.752 422.747" stroke="#442257" stroke-width="4" stroke-linecap="round" stroke-linejoin="round"/>
<path d="M106.305 535.86C112.048 528.223 123.533 520.24 131.931 517.556" stroke="#442257" stroke-width="4" stroke-linecap="round" stroke-linejoin="round"/>
<path d="M139.368 533.448C140.602 528.38 149.259 519.092 153.896 518.015" stroke="#442257" stroke-width="4" stroke-linecap="round" stroke-linejoin="round"/>
<path d="M339.507 509.904C395.64 509.904 410.915 509.689 427.554 522.38C439.742 531.668 443.016 550.719 451.787 562.577" stroke="#442257" stroke-width="4" stroke-linecap="round" stroke-linejoin="round"/>
<path d="M469.79 502.712C476.681 513.35 480.428 538.975 491.784 547.991" stroke="#442257" stroke-width="4" stroke-linecap="round" stroke-linejoin="round"/>
<path d="M486.745 476.727C497.986 485.14 503.355 531.094 516.721 540.483" stroke="#442257" stroke-width="4" stroke-linecap="round" stroke-linejoin="round"/>
<path d="M344.403 430.385C360.109 431.95 374.551 437.707 384.844 449.278" stroke="#442257" stroke-width="4" stroke-linecap="round" stroke-linejoin="round"/>
<path d="M198.458 535.788C202.937 528.323 211.077 518.805 219.633 517.628" stroke="#442257" stroke-width="4" stroke-linecap="round" stroke-linejoin="round"/>
<path d="M844.502 128.345C840.525 144.022 831.696 162.656 825.968 180.429C834.668 180.572 853.058 181.635 850.46 195.288C848.335 206.485 830.088 206.844 821.503 206.773C819.019 212.515 815.043 225.78 815.043 225.78" stroke="#442257" stroke-width="4" stroke-linecap="round" stroke-linejoin="round"/>
<path d="M719.574 236.504C719.574 236.504 728.317 211.079 731.576 197.455C735.165 182.439 740.85 168.083 745.932 153.482C750.425 140.346 754.675 123.851 761.049 110.198" stroke="#442257" stroke-width="4" stroke-linecap="round" stroke-linejoin="round"/>
<path d="M753.483 102.145C759.412 117.822 792.389 116.501 800.615 104.384C801.806 117.305 820.225 113.558 829.686 111.246C829.686 116.544 834.926 122.731 839.147 125.603C843.676 128.747 849.135 130.265 854.637 129.909" stroke="#442257" stroke-width="4" stroke-linecap="round" stroke-linejoin="round"/>
<path d="M753.483 163.647L755.752 157.43" stroke="#442257" stroke-width="4" stroke-linecap="round" stroke-linejoin="round"/>
<path d="M559.646 391.394C562.919 393.533 567.657 395.873 566.996 400.438" stroke="#442257" stroke-width="4" stroke-linecap="round" stroke-linejoin="round"/>
<path d="M580.62 380.081C583.578 382.048 595.393 389.556 591.919 391.953" stroke="#442257" stroke-width="4" stroke-linecap="round" stroke-linejoin="round"/>
<path d="M791.484 166.748L793.738 160.531" stroke="#442257" stroke-width="4" stroke-linecap="round" stroke-linejoin="round"/>
<path d="M743.735 196.838C743.735 196.838 720.607 178.921 709.553 170.911C699.403 163.56 689.454 155.607 679.405 148.328C675.098 156.655 664.747 148.142 668.939 139.901C674.596 128.775 687.789 140.461 679.405 148.328" fill="#F15D4A"/>
<path d="M743.735 196.838C743.735 196.838 720.607 178.921 709.553 170.911C699.403 163.56 689.454 155.607 679.405 148.328C675.098 156.655 664.747 148.142 668.939 139.901C674.596 128.775 687.789 140.461 679.405 148.328" stroke="#F15D4A" stroke-width="4" stroke-linecap="round" stroke-linejoin="round"/>
<path d="M732.452 195.833C732.452 195.833 735.911 202.423 739.113 202.853C743.893 203.442 750.426 192.043 754.718 195.675C757.288 197.829 753.282 202.494 754.79 204.677C757.661 208.524 762.499 201.978 764.365 199.896C768.198 195.589 775.061 189.387 778.592 196.206C780.775 200.442 777.946 203.959 785.34 202.911" stroke="#442257" stroke-width="4" stroke-linecap="round" stroke-linejoin="round"/>
<path d="M675.041 119.63C673.876 116.848 673.291 113.856 673.323 110.839C673.355 107.823 674.003 104.844 675.227 102.087C677.582 96.6747 672.772 91.1907 673.935 85.6348" stroke="#442257" stroke-width="4" stroke-linecap="round" stroke-linejoin="round"/>
<path d="M687.129 123.664C686.091 119.261 686.498 114.64 688.292 110.485C688.842 108.948 689.084 107.317 689.002 105.686C688.921 104.055 688.518 102.457 687.818 100.982" stroke="#442257" stroke-width="4" stroke-linecap="round" stroke-linejoin="round"/>
<path d="M661.776 124.066C659.22 118.984 661.359 113.902 662.594 109.437C663.473 105.8 663.309 101.989 662.12 98.4406" stroke="#442257" stroke-width="4" stroke-linecap="round" stroke-linejoin="round"/>
<path d="M793.279 292.522C794.351 291.471 795.676 290.714 797.126 290.326" stroke="#442257" stroke-width="4" stroke-linecap="round" stroke-linejoin="round"/>
<path d="M807.018 272.711C808.069 273.002 809.022 273.572 809.774 274.362" stroke="#442257" stroke-width="4" stroke-linecap="round" stroke-linejoin="round"/>
<path d="M834.51 328.8C836.08 327.748 837.737 326.831 839.463 326.058" stroke="#442257" stroke-width="4" stroke-linecap="round" stroke-linejoin="round"/>
<path d="M762.484 324.393C764.311 325.95 766.345 327.245 768.528 328.241" stroke="#442257" stroke-width="4" stroke-linecap="round" stroke-linejoin="round"/>
<path d="M750.397 341.448C751.475 340.715 752.405 339.784 753.139 338.706" stroke="#442257" stroke-width="4" stroke-linecap="round" stroke-linejoin="round"/>
<path d="M660.225 337.055C660.969 337.978 661.904 338.728 662.967 339.252" stroke="#442257" stroke-width="4" stroke-linecap="round" stroke-linejoin="round"/>
<path d="M666.757 328.255C666.817 327.69 667.07 327.164 667.473 326.764C667.875 326.364 668.403 326.115 668.968 326.058" stroke="#442257" stroke-width="4" stroke-linecap="round" stroke-linejoin="round"/>
<path d="M688.808 311.76C689.648 312.3 690.584 312.676 691.565 312.865" stroke="#442257" stroke-width="4" stroke-linecap="round" stroke-linejoin="round"/>
<path d="M694.867 293.613C694.898 292.676 695.082 291.749 695.412 290.871" stroke="#442257" stroke-width="4" stroke-linecap="round" stroke-linejoin="round"/>
<path d="M684.415 280.765C684.817 278.87 685.219 277.061 685.521 275.266" stroke="#442257" stroke-width="4" stroke-linecap="round" stroke-linejoin="round"/>
<path d="M653.076 282.401C653.716 283.064 654.458 283.621 655.272 284.052" stroke="#442257" stroke-width="4" stroke-linecap="round" stroke-linejoin="round"/>
<path d="M640.428 310.669C641.231 310.219 641.969 309.663 642.625 309.018" stroke="#442257" stroke-width="4" stroke-linecap="round" stroke-linejoin="round"/>
<path d="M662.45 298.021C663.448 298.6 664.622 298.794 665.752 298.566" stroke="#442257" stroke-width="4" stroke-linecap="round" stroke-linejoin="round"/>
<path d="M865.734 321.105C868.349 321.069 870.951 320.727 873.487 320.086" stroke="#442257" stroke-width="4" stroke-linecap="round" stroke-linejoin="round"/>
<path d="M792.173 398.083C792.44 397.304 792.812 396.565 793.279 395.887" stroke="#442257" stroke-width="4" stroke-linecap="round" stroke-linejoin="round"/>
<path d="M737.189 433.141L735.552 435.352" stroke="#442257" stroke-width="4" stroke-linecap="round" stroke-linejoin="round"/>
<path d="M721.799 427.758H716.301" stroke="#442257" stroke-width="4" stroke-linecap="round" stroke-linejoin="round"/>
<path d="M694.867 377.195C694.835 376.483 695.031 375.779 695.426 375.186C695.821 374.592 696.394 374.139 697.063 373.893" stroke="#442257" stroke-width="4" stroke-linecap="round" stroke-linejoin="round"/>
<path d="M645.223 381.703L643.572 379.507" stroke="#442257" stroke-width="4" stroke-linecap="round" stroke-linejoin="round"/>
<path d="M630.537 425.576C629.792 426.811 628.862 427.924 627.78 428.878" stroke="#442257" stroke-width="4" stroke-linecap="round" stroke-linejoin="round"/>
<path d="M616.353 411.277C618.213 411.49 620.053 411.86 621.851 412.382" stroke="#442257" stroke-width="4" stroke-linecap="round" stroke-linejoin="round"/>
<path d="M588.659 344.75C587.561 344.037 586.622 343.103 585.903 342.008" stroke="#442257" stroke-width="4" stroke-linecap="round" stroke-linejoin="round"/>
<path d="M616.783 344.75C617.466 344.854 618.164 344.809 618.828 344.618C619.492 344.427 620.107 344.095 620.631 343.645" stroke="#442257" stroke-width="4" stroke-linecap="round" stroke-linejoin="round"/>
<path d="M619.539 327.149C619.012 326.114 618.639 325.006 618.434 323.862" stroke="#442257" stroke-width="4" stroke-linecap="round" stroke-linejoin="round"/>
<path d="M204.329 515.589C194.108 494.701 186.657 474.243 182.623 449.838C180.268 435.639 170.564 392.599 182.336 381.646C211.335 354.685 233.429 459.169 236.329 477.933C237.837 487.623 238.727 508.555 233.386 516.623" stroke="#442257" stroke-width="4" stroke-linecap="round" stroke-linejoin="round"/>
<path d="M130.553 517.254C120.079 497.454 112.756 476.143 108.846 454.087C106.492 440.764 96.7871 400.366 108.559 390.087C137.544 364.791 159.639 462.816 162.553 480.445C163.989 489.547 166.86 509.933 160.888 517.125" stroke="#442257" stroke-width="4" stroke-linecap="round" stroke-linejoin="round"/>
<path d="M178.646 426.997C174.813 415.612 161.692 401.73 150.293 394.566C138.894 387.402 122.743 385.378 119.082 386.024" stroke="#442257" stroke-width="4" stroke-linecap="round" stroke-linejoin="round"/>
<path d="M165.453 482.311C172.013 478.622 181.761 472.262 184.977 466.52" stroke="#442257" stroke-width="4" stroke-linecap="round" stroke-linejoin="round"/>
<path d="M193.433 377.224C217.336 382.651 238.971 410.731 249.709 431.548C253.758 439.386 252.222 448.058 250.327 454.159C248.432 460.26 240.909 474.329 237.794 477.028" stroke="#442257" stroke-width="4" stroke-linecap="round" stroke-linejoin="round"/>
</g>
<defs>
<clipPath id="clip0">
<rect width="1000" height="800" fill="white"/>
</clipPath>
</defs>
</svg>
