<svg width="1000" height="800" viewBox="0 0 1000 800" fill="none" xmlns="http://www.w3.org/2000/svg">
<g clip-path="url(#clip0)">
<path d="M713.263 114.16H712.944C720.245 125.003 737.929 128.723 747.345 116.925C749.679 113.836 750.984 110.093 751.078 106.222C742.86 111.09 722.028 116.543 713.263 114.16Z" fill="#442257"/>
<path d="M534.174 74.2169C534.021 87.0344 533.932 102.184 547.616 99.7882C557.21 98.0937 555.044 81.8106 554.751 73.3122C554.56 67.9228 544.278 66.3301 544.278 66.3301C544.278 66.3301 534.238 69.388 534.174 74.2169Z" fill="#FAB550" stroke="#FAB550" stroke-width="4" stroke-linecap="round" stroke-linejoin="round"/>
<path d="M556.394 74.0131C549.54 72.1529 539.143 72.5988 532.416 74.1659C531.97 67.4769 531.142 53.4235 536.391 48.8876C542.761 43.3962 553.923 46.9765 554.878 55.9589C555.209 58.6473 556.394 74.0131 556.394 74.0131Z" fill="#F15D4A" stroke="#F15D4A" stroke-width="4" stroke-linecap="round" stroke-linejoin="round"/>
<path d="M564.103 176.324C564.103 176.324 561.618 147.453 559.605 133.246C558.497 125.36 556.076 103.101 548.673 104.375C541.271 105.649 542.023 121.983 539.907 127.398C537.359 133.871 528.925 141.018 520.681 133.769" stroke="#442257" stroke-width="4" stroke-linecap="round" stroke-linejoin="round"/>
<path d="M503.914 86.2571C503.837 66.3046 515.661 56.0735 521.751 52.1365C527.842 48.1995 535.193 46.6451 534.098 40.2108C533.002 33.7766 523.229 33.0503 518.502 34.987C511.661 37.79 502.054 43.7656 496.664 52.6716C490.982 62.0745 486.79 69.1713 486.331 90.6273" stroke="#442257" stroke-width="4" stroke-linecap="round" stroke-linejoin="round"/>
<path d="M519.114 195.703C515.623 181.751 512.603 170.221 512.603 170.221C506.959 166.819 504.564 165.672 499.098 161.187C488.803 152.74 482.891 140.712 479.642 128.061C477.298 118.874 478.903 107.93 491.185 113.396C497.9 116.39 508.106 133.781 504.857 141.426C500.206 152.434 490.625 137.272 488.51 130.736" stroke="#442257" stroke-width="4" stroke-linecap="round" stroke-linejoin="round"/>
<path d="M480.126 114.899C475.641 94.233 494.804 92.6531 503.583 105.076C509.596 113.587 523.191 141.439 504.857 141.439" stroke="#442257" stroke-width="4" stroke-linecap="round" stroke-linejoin="round"/>
<path d="M482.764 98.616C485.592 81.7596 505.417 83.8619 513.342 96.501C516.426 101.394 530.887 136.903 516.056 135.005" stroke="#442257" stroke-width="4" stroke-linecap="round" stroke-linejoin="round"/>
<path d="M534.289 10.4604L532.798 0" stroke="#442257" stroke-width="4" stroke-linecap="round" stroke-linejoin="round"/>
<path d="M567.173 14.9453L573.149 7.46625" stroke="#442257" stroke-width="4" stroke-linecap="round" stroke-linejoin="round"/>
<path d="M583.89 24.4629L589.865 21.4688" stroke="#442257" stroke-width="4" stroke-linecap="round" stroke-linejoin="round"/>
<path d="M595.599 67.2475L603.817 68.7382" stroke="#442257" stroke-width="4" stroke-linecap="round" stroke-linejoin="round"/>
<path d="M569.9 190.059L567.861 175.062C558.866 177.522 543.539 185.255 534.938 189.32C530.059 191.626 519.458 195.257 517.712 200.417C516.719 203.462 520.719 219.911 520.719 219.911" stroke="#442257" stroke-width="4" stroke-linecap="round" stroke-linejoin="round"/>
<path d="M617.692 354.1C617.692 354.1 606.836 369.785 599.523 378.079C587.585 391.648 553.286 420.685 538.773 388.45C525.956 359.987 525.956 324.414 522.936 293.44C521.229 275.985 520.095 257.23 518.961 239.927C518.299 229.849 515.738 225.161 523.548 219.147C539.398 206.954 560.433 197.028 578.487 188.454C583.253 222.179 589.572 261.205 575.328 293.478C579.507 281.922 583.686 275.45 586.616 276.252C591.878 277.705 589.317 296.23 584.183 309.163C584.183 291.529 589.827 278.202 597.089 264.238C604.352 250.273 616.762 234.551 628.012 219.172C638.421 204.928 651.914 191.014 668.618 186.173" stroke="#442257" stroke-width="4" stroke-linecap="round" stroke-linejoin="round"/>
<path d="M773.834 116.161C782.663 109.79 795.035 119.308 788.69 130.966C785.02 137.693 778.331 136.737 771.808 136.355C771.094 144.114 768.788 152.613 766.992 160.436C765.832 165.532 762.724 180.822 762.724 180.822" stroke="#442257" stroke-width="4" stroke-linecap="round" stroke-linejoin="round"/>
<path d="M697.222 170.221C697.222 170.221 700.037 85.5055 711.797 43.4854" stroke="#442257" stroke-width="4" stroke-linecap="round" stroke-linejoin="round"/>
<path d="M709.784 105.687C711.772 122.442 735.802 131.322 747.332 116.848C750.747 112.567 753.079 103.84 748.606 99.4186C743.434 94.3222 737.955 98.3993 732.846 100.807C726.781 103.661 718.193 104.49 711.67 102.081C709.606 103.394 710.039 104.209 709.784 105.687Z" stroke="#442257" stroke-width="4" stroke-linecap="round" stroke-linejoin="round"/>
<path d="M713.263 114.16C722.092 116.594 742.975 111.115 751.129 106.159" stroke="#442257" stroke-width="4" stroke-linecap="round" stroke-linejoin="round"/>
<path d="M645.582 313.291L642.613 296.6C642.613 296.6 684.659 286.509 697.833 283.859C698.865 287.681 700.522 299.263 700.522 299.263" stroke="#442257" stroke-width="4" stroke-linecap="round" stroke-linejoin="round"/>
<path d="M717.009 85.3908V80.116" stroke="#442257" stroke-width="4" stroke-linecap="round" stroke-linejoin="round"/>
<path d="M710.651 41.5359C711.999 44.0963 713.716 46.4446 715.747 48.5053C727.214 59.8703 745.408 48.7473 759.181 48.4161C756.442 54.175 751.04 56.5704 750.263 63.8583C749.486 71.1462 752.926 74.9685 757.614 80.1796C762.711 85.9003 764.635 90.2323 766.864 97.8387C768.521 103.521 768.521 113.039 775.49 114.542C781.071 109.382 780.064 95.0739 781.275 87.1872C782.447 79.5425 782.829 71.8979 783.912 64.3806C785.186 55.7167 789.25 40.8096 784.906 32.4642C784.078 30.8716 781.644 31.5723 780.982 30.6805C779.797 29.1133 780.09 26.5778 778.624 25.2528C773.923 21.0227 766.1 19.876 760.073 18.4873C753.333 16.9201 748.008 16.5634 741.93 13.136C737.789 10.7916 735.33 5.70794 731.508 13.0341C728.501 9.32641 725.583 5.66972 723.213 12.6646C715.76 3.21069 707.924 16.2066 706.956 23.5964C706.35 29.812 707.638 36.0656 710.651 41.5359V41.5359Z" stroke="#442257" stroke-width="4" stroke-linecap="round" stroke-linejoin="round"/>
<path d="M764.074 179.407C748.262 178.694 735.063 177.05 723.545 176.324C713.925 175.725 704.14 173.139 694.737 171.979C700.764 179.624 698.343 196.187 701.375 205.832C705.618 195.639 714.371 186.593 718.308 176.375C722.959 187.982 728.144 200.736 730.743 213.082C740.414 201.564 751.333 186.784 764.074 179.407Z" stroke="#442257" stroke-width="4" stroke-linecap="round" stroke-linejoin="round"/>
<path d="M714.6 203.883C713.072 221.657 711.466 276.647 710.612 294.485" stroke="#442257" stroke-width="4" stroke-linecap="round" stroke-linejoin="round"/>
<path d="M749.728 360.343L740.936 359.477C740.936 359.477 738.77 319.878 739.229 304.385C750.314 301.836 767.476 303.951 777.987 307.99C779.771 316.438 780.255 353.043 780.255 353.043" stroke="#442257" stroke-width="4" stroke-linecap="round" stroke-linejoin="round"/>
<path d="M742.249 359.719C743.816 353.947 751.371 340.875 758.239 340.837C764.151 340.837 769.706 348.354 772.572 355.323" stroke="#442257" stroke-width="4" stroke-linecap="round" stroke-linejoin="round"/>
<path d="M759.768 327.968C766.673 329.179 767.17 340.327 759.283 339.792C751.397 339.257 752.875 326.758 759.768 327.968Z" stroke="#442257" stroke-width="4" stroke-linecap="round" stroke-linejoin="round"/>
<path d="M760.876 303.48C761.361 297.862 761.557 292.223 761.462 286.585" stroke="#442257" stroke-width="4" stroke-linecap="round" stroke-linejoin="round"/>
<path d="M742.949 289.427C742.949 289.427 767.896 287.439 779.109 285.795" stroke="#442257" stroke-width="4" stroke-linecap="round" stroke-linejoin="round"/>
<path d="M793.646 191.473C803.177 207.081 792.792 220.472 783.644 227.925C769.706 239.303 761.297 246.935 746.695 257.408C761.297 246.935 770.024 250.235 770.445 258.109C770.865 265.983 753.524 275.972 738.592 294.485C734.069 300.091 729.113 306.856 724.335 314.157" stroke="#442257" stroke-width="4" stroke-linecap="round" stroke-linejoin="round"/>
<path d="M670.083 288.267C666.019 271.704 661.521 241.647 676.008 246.374C667.497 226.282 661.891 207.731 669.79 186.135C673.09 177.216 683.589 171.533 693.539 173.394C693.539 173.394 689.921 248.566 689.717 283.324" stroke="#442257" stroke-width="4" stroke-linecap="round" stroke-linejoin="round"/>
<path d="M801.762 261.052C800.692 277.386 799.775 288.662 798.042 304.971C796.233 322.107 793.608 344.009 793.608 344.009" stroke="#442257" stroke-width="4" stroke-linecap="round" stroke-linejoin="round"/>
<path d="M516.298 253.038L517.572 253.293" stroke="#442257" stroke-width="4" stroke-linecap="round" stroke-linejoin="round"/>
<path d="M517.33 263.384C517.871 263.604 518.395 263.864 518.897 264.161" stroke="#442257" stroke-width="4" stroke-linecap="round" stroke-linejoin="round"/>
<path d="M517.075 273.322C517.971 273.392 518.841 273.657 519.624 274.099" stroke="#442257" stroke-width="4" stroke-linecap="round" stroke-linejoin="round"/>
<path d="M733.534 82.728V77.4404" stroke="#442257" stroke-width="4" stroke-linecap="round" stroke-linejoin="round"/>
<path d="M642.855 365.3C653.048 366.293 652.386 378.206 663.713 385.583C668.427 388.667 675.001 387.265 682.926 386.233L686.264 385.736C686.328 384.169 686.404 382.538 686.494 380.793C690.966 380.793 706.637 376.639 706.637 376.639L707.185 376.512C707.007 375.021 706.828 373.543 706.637 372.103C717.123 369.746 726.386 367.44 734.591 365.3C730.654 352.393 720.92 294.115 720.92 294.115C720.92 294.115 679.027 302.856 668.147 305.2C659.228 307.124 630.038 316.106 630.038 316.106C631.172 335.689 639.415 381.303 639.415 381.303L641.059 386.934C640.078 378.296 638.817 364.892 642.855 365.3Z" fill="#ABDDDF" stroke="#ABDDDF" stroke-width="4" stroke-linecap="round" stroke-linejoin="round"/>
<path d="M804.846 339.13C798.297 340.404 790.83 345.22 789.556 352.011C794.946 353.756 800.17 356.725 801.711 362.446C790.435 344.226 773.018 357.184 706.637 372.103C708.408 385.647 709.466 401.701 710.281 414.327C711.09 427.221 711.09 440.154 710.281 453.048C710.281 453.048 755.155 444.294 777.478 436.14C791.862 430.878 844.521 417.908 854.638 405.383C865.977 391.368 864.589 362.063 864.589 325.624C864.589 289.184 868.564 252.477 858.384 228.218C849.567 207.247 822.772 194.76 793.595 191.473C786.282 182.083 762.673 182.121 762.673 182.121C762.673 182.121 752.11 200.901 748.747 208.215C735.84 236.475 726.501 259.791 718.206 289.427" stroke="#442257" stroke-width="4" stroke-linecap="round" stroke-linejoin="round"/>
<path d="M706.637 376.626C706.637 376.626 690.966 380.716 686.494 380.78C685.704 394.795 686.341 402.032 686.341 416.124C686.341 426.597 685.181 441.198 684.965 451.468L710.562 447.977" stroke="#442257" stroke-width="4" stroke-linecap="round" stroke-linejoin="round"/>
<path d="M639.415 381.01C621.985 381.952 627.49 408.505 627.49 420.265C627.49 428.776 626.611 437.695 631.631 444.868C637.275 452.946 645.442 451.71 654.475 450.843C664.184 449.926 673.128 447.225 682.238 445.823" stroke="#442257" stroke-width="4" stroke-linecap="round" stroke-linejoin="round"/>
<path d="M682.926 386.233C675.001 387.265 668.427 388.667 663.713 385.583C652.386 378.206 653.074 366.293 642.855 365.3C637.44 364.765 641.581 388.947 641.734 393.33" stroke="#442257" stroke-width="4" stroke-linecap="round" stroke-linejoin="round"/>
<path d="M627.49 417.551C628.292 421.067 633.669 424.737 638.447 425.374" stroke="#442257" stroke-width="4" stroke-linecap="round" stroke-linejoin="round"/>
<path d="M627.668 432.968C628.445 436.102 638.511 439.338 641.683 439.223" stroke="#442257" stroke-width="4" stroke-linecap="round" stroke-linejoin="round"/>
<path d="M745.268 446.868L748.046 450.334" stroke="#442257" stroke-width="4" stroke-linecap="round" stroke-linejoin="round"/>
<path d="M755.729 443.81L758.494 447.964" stroke="#442257" stroke-width="4" stroke-linecap="round" stroke-linejoin="round"/>
<path d="M735.432 449.391L738.21 453.557" stroke="#442257" stroke-width="4" stroke-linecap="round" stroke-linejoin="round"/>
<path d="M697.222 450.334C697.222 450.334 694.801 541.012 694.737 562.009C694.661 586.459 693.463 609.075 694.737 633.589C708.752 637.768 712.256 639.488 727.163 640.431C744.173 641.514 780.969 642.074 797.43 637.882C805.368 635.869 817.65 634.748 823.792 628.76C827.308 625.32 831.78 611.789 822.199 616.669C822.874 612.744 832.723 599.927 821.485 602.08C830.2 578.764 824.887 518.728 825.97 504.623C826.837 493.526 825.97 463.979 825.894 452.946C825.754 443.53 827.168 421.794 827.168 421.794" stroke="#442257" stroke-width="4" stroke-linecap="round" stroke-linejoin="round"/>
<path d="M649.468 452.831C649.646 468.745 649.838 501.069 649.175 516.97C647.684 552.453 650.895 590.944 649.009 626.466C641.726 627.362 634.395 627.813 627.057 627.817C614.978 627.817 603.906 626.543 600.415 626.466C600.415 617.815 601.689 583.618 601.753 575.502C601.918 561.665 602.262 545.242 603.116 531.482C605.205 497.794 609.283 464.234 610.913 430.559C613.232 382.551 618.354 346.468 627.477 299.76C629.07 291.618 641.721 245.253 641.721 245.253" stroke="#442257" stroke-width="4" stroke-linecap="round" stroke-linejoin="round"/>
<path d="M622.38 466.005C622.38 466.005 609.142 480.377 604.326 488.48" stroke="#442257" stroke-width="4" stroke-linecap="round" stroke-linejoin="round"/>
<path d="M775.121 640.673C775.121 640.673 775.363 674.959 775.019 686.171C774.662 697.982 774.84 709.704 774.229 721.489C773.834 729.134 774.649 738.613 774.713 747.316C774.789 757.126 770.98 764.465 760.481 765.026C749.779 765.599 738.821 765.293 728.093 765.51C715.989 765.777 702.739 766.86 690.749 765.166C678.008 763.357 676.912 759.929 675.995 748.437C674.887 734.625 674.046 720.903 674.046 707.003C673.878 696.857 674.248 686.709 675.154 676.603C676.963 659.568 675.677 642.011 675.549 624.848C675.396 605.847 675.15 586.85 674.81 567.857C674.249 536.336 676.224 448.601 676.224 448.601" stroke="#442257" stroke-width="4" stroke-linecap="round" stroke-linejoin="round"/>
<path d="M622.228 627.728C621.871 645.909 620.202 665.263 622.865 683.177C625.527 701.091 622.036 719.527 623.897 737.632C624.368 742.257 623.362 752.093 626.216 755.648C630.203 760.605 648.538 758.196 654.526 758.196C661.394 758.196 676.492 758.681 676.492 758.681" stroke="#442257" stroke-width="4" stroke-linecap="round" stroke-linejoin="round"/>
<path d="M767.896 798.726H685.079C684.3 798.627 683.588 798.231 683.092 797.622C682.597 797.012 682.355 796.235 682.416 795.451C682.423 795.341 682.423 795.23 682.416 795.12C682.351 794.541 682.424 793.955 682.63 793.41C682.836 792.865 683.169 792.377 683.601 791.986C693.183 785.182 708.447 787.883 721.188 786.889C730.986 786.176 743.994 785.934 753.703 785.246C758.137 784.927 763.093 783.972 767.31 784.94C768.049 788.992 768.725 794.789 767.896 798.726Z" fill="#442257" stroke="#442257" stroke-width="4" stroke-linecap="round" stroke-linejoin="round"/>
<path d="M701.452 795.732H625.005C624.095 795.733 623.217 795.396 622.541 794.787C621.865 794.177 621.44 793.337 621.348 792.432C621.274 791.764 621.387 791.088 621.675 790.48C621.963 789.872 622.415 789.357 622.979 788.992C634.688 781.5 657.775 785.093 670.542 785.31C682.977 785.526 687.207 784.838 699.477 783.934L701.452 795.732Z" fill="#442257" stroke="#442257" stroke-width="4" stroke-linecap="round" stroke-linejoin="round"/>
<path d="M626.674 400.924C627.299 404.479 632.064 410.008 636.867 410.008" stroke="#442257" stroke-width="4" stroke-linecap="round" stroke-linejoin="round"/>
<path d="M735.419 474.159C752.059 481.333 764.431 496.979 778.433 507.745" stroke="#442257" stroke-width="4" stroke-linecap="round" stroke-linejoin="round"/>
<path d="M750.658 316.31C752.301 315.367 758.608 311.672 758.672 315.928C761.526 315.023 766.839 312.603 767.986 317.355" stroke="#442257" stroke-width="4" stroke-linecap="round" stroke-linejoin="round"/>
<path d="M375.076 524.245C375.076 524.245 374.413 540.948 374.146 545.586" stroke="#442257" stroke-width="4" stroke-linecap="round" stroke-linejoin="round"/>
<path d="M443.508 605.418V605.202C441.829 605.576 440.126 605.84 438.412 605.992C437.201 606.055 436.055 606.157 434.997 606.285L435.354 608.629C435.736 613.05 436.921 620.261 436.921 620.261C436.921 620.261 416.459 623.51 385.804 626.836C355.149 630.161 337.643 632.022 337.643 632.022C337.643 632.022 336.177 613.865 335.553 605.061C334.903 595.913 332.814 566.405 332.814 566.405C332.814 566.405 345.02 563.334 357.328 561.602L359.162 561.334C356.308 558.977 354.894 554.072 354.002 549.128H353.429L332.814 551.804L331.807 551.931C330.533 576.521 329.692 601.15 328.393 623.638C326.772 624.567 325.025 625.258 323.207 625.689V625.689L325.309 643.527L446.35 629.295L443.508 605.418Z" fill="#ABDDDF" stroke="#ABDDDF" stroke-width="4" stroke-linecap="round" stroke-linejoin="round"/>
<path d="M426.614 552.288C426.614 552.288 427.506 557.69 428.053 560.812L428.117 561.245C431.201 560.761 434.908 560.124 438.119 559.601L435.775 539.712L368.642 547.778L367.521 547.879C367.215 553.243 366.527 557.907 365.125 560.519L365.966 560.404C367.521 560.098 426.614 552.288 426.614 552.288Z" fill="#ABDDDF" stroke="#ABDDDF" stroke-width="4" stroke-linecap="round" stroke-linejoin="round"/>
<path d="M242.034 264.722C249.283 302.512 255.845 317.533 248.659 336.607C249.678 333.447 254.647 312.896 258.852 313.838C264.331 315.113 264.98 335.728 266.726 339.919C264.929 331.001 268.548 320.222 275.403 312.921C283.939 303.824 317.181 279.055 326.966 271.462C342.905 259.103 356.27 251.484 370.285 236.984C370.285 236.984 382.135 256.669 386.989 264.849C390.557 270.888 398.265 286.318 398.201 293.147C398.201 297.109 391.92 301.849 389.563 304.716C382.058 313.813 377.713 320.107 369.177 328.542C354.856 342.774 336.662 361.745 326.775 371.747C316.888 381.748 305.051 397.101 274.434 408.696C262.241 413.334 237.485 418.01 223.687 414.022C209.888 410.034 198.204 392.056 194.382 379.277C188.211 359.15 183.983 338.479 181.756 317.546" stroke="#442257" stroke-width="4" stroke-linecap="round" stroke-linejoin="round"/>
<path d="M386.186 292.675C386.186 292.675 372.834 306.793 363.533 315.699C359.583 319.521 355.888 323.343 352.066 327.051" stroke="#442257" stroke-width="4" stroke-linecap="round" stroke-linejoin="round"/>
<path d="M360.781 312.921C361.394 314.865 361.892 316.843 362.271 318.846" stroke="#442257" stroke-width="4" stroke-linecap="round" stroke-linejoin="round"/>
<path d="M370.935 304.716C370.834 306.659 371.098 308.603 371.712 310.449" stroke="#442257" stroke-width="4" stroke-linecap="round" stroke-linejoin="round"/>
<path d="M378.503 297.364C379.168 298.45 379.634 299.645 379.879 300.894" stroke="#442257" stroke-width="4" stroke-linecap="round" stroke-linejoin="round"/>
<path d="M374.095 239.966L383.625 232.321L408.419 275.22L397.577 286.343" stroke="#442257" stroke-width="4" stroke-linecap="round" stroke-linejoin="round"/>
<path d="M274.816 160.461C274.816 160.461 276.027 145.376 275.823 137.527C248.391 155.25 248.009 107.637 275.632 114.823C276.575 111.93 277.084 101.1 277.084 101.1" stroke="#442257" stroke-width="4" stroke-linecap="round" stroke-linejoin="round"/>
<path d="M213.659 206.724C211.761 193.983 212.627 181.688 220.03 171.113C231.93 154.142 239.141 136.712 241.69 116.148C243.333 103.407 249.105 94.0802 254.291 82.2183C258.304 73.032 259.387 62.9283 263.885 53.8694C271.962 37.5098 286.589 30.3111 304.21 26.8583C316.951 24.3101 337.668 24.1826 343.708 38.8476C345.67 43.6128 350.804 59.0677 344.587 61.3229C340.484 62.8009 323.526 50.7988 319.347 48.9004C313.6 59.7558 304.86 68.2541 297.406 78.345C293.164 84.104 280.142 100.005 270.459 104.324" stroke="#442257" stroke-width="4" stroke-linecap="round" stroke-linejoin="round"/>
<path d="M309.281 115.995C312.033 118.76 315.983 121.333 320.086 120.161" stroke="#442257" stroke-width="4" stroke-linecap="round" stroke-linejoin="round"/>
<path d="M159.815 641.998C158.972 658.721 157.121 675.378 154.273 691.879C150.018 715.692 145.176 739.021 139.391 761.764C153.814 762.261 169.295 760.49 183.985 759.827C194.28 759.394 205.403 759.509 215.43 758.872C223.546 735.059 227.853 702.212 231.994 677.329C234.542 661.848 236.02 652.993 237.702 637.398" stroke="#442257" stroke-width="4" stroke-linecap="round" stroke-linejoin="round"/>
<path d="M134.422 800H225.445C225.725 790.011 221.317 788.75 212.602 788.227C199.861 787.463 186.699 787.654 173.958 787.526C161.217 787.399 148.896 788.457 136.627 787.667L134.422 800Z" fill="#442257" stroke="#442257" stroke-width="4" stroke-linecap="round" stroke-linejoin="round"/>
<path d="M140.627 787.565L144.845 764.669" stroke="#442257" stroke-width="4" stroke-linecap="round" stroke-linejoin="round"/>
<path d="M198.204 786.15C200.893 776.187 202.205 769.714 204.498 759.725" stroke="#442257" stroke-width="4" stroke-linecap="round" stroke-linejoin="round"/>
<path d="M218.501 748.666C218.501 748.666 239.804 749.813 252.43 749.443C262.865 749.137 287.175 747.978 287.175 747.978C287.175 747.978 296.374 701.601 298.795 685.037C303.471 652.955 308.096 620.631 309.651 588.205C311.09 558.302 311.867 538.731 313.371 508.841C314.25 491.22 317.728 427.094 317.703 409.906C306.171 412.477 294.403 413.835 282.588 413.958" stroke="#442257" stroke-width="4" stroke-linecap="round" stroke-linejoin="round"/>
<path d="M264.738 751.495C261.719 761.586 256.418 780.634 256.418 780.634" stroke="#442257" stroke-width="4" stroke-linecap="round" stroke-linejoin="round"/>
<path d="M196.637 795.158H276.524C286.92 776.913 253.322 780.799 199.937 780.799" fill="#442257"/>
<path d="M196.637 795.158H276.524C286.92 776.913 253.322 780.799 199.937 780.799" stroke="#442257" stroke-width="4" stroke-linecap="round" stroke-linejoin="round"/>
<path d="M307.701 627.282C313.091 627.651 323.806 626.594 328.367 623.689C330.915 579.171 331.795 526.258 337.286 481.893C340.713 454.372 344.217 353.82 344.217 353.82" stroke="#442257" stroke-width="4" stroke-linecap="round" stroke-linejoin="round"/>
<path d="M316.862 410.25C331.769 407.129 335.732 398.974 333.425 385.239C331.412 373.25 332.597 366.434 332.597 366.434" stroke="#442257" stroke-width="4" stroke-linecap="round" stroke-linejoin="round"/>
<path d="M181.73 477.472C198.956 473.65 222.336 459.826 233.013 449.06" stroke="#442257" stroke-width="4" stroke-linecap="round" stroke-linejoin="round"/>
<path d="M377.637 319.546C379.586 347.195 381.306 372.269 381.943 383.086C384.199 421.539 386.059 443.734 385.562 482.403C385.473 489.245 385.562 501.323 384.352 507.885C375.229 511.402 343.58 511.032 336.967 511.707" stroke="#442257" stroke-width="4" stroke-linecap="round" stroke-linejoin="round"/>
<path d="M377.306 510.472L377.637 522.346L336.967 524.245" stroke="#442257" stroke-width="4" stroke-linecap="round" stroke-linejoin="round"/>
<path d="M438.386 605.966C441.967 605.788 450.733 603.482 450.733 603.482C449.892 588.944 448.35 573.145 444.744 558.671C440.642 558.9 425.416 561.971 422.218 561.92C423.798 572.635 428.589 607.431 428.589 607.431C431.798 606.618 435.08 606.127 438.386 605.966V605.966Z" stroke="#442257" stroke-width="4" stroke-linecap="round" stroke-linejoin="round"/>
<path d="M408.305 567.564C409.579 570.112 408.521 574.483 408.802 577.655C409.12 581.235 410.076 585.185 410.777 588.829C412.242 596.205 412.98 603.708 412.981 611.228" stroke="#442257" stroke-width="4" stroke-linecap="round" stroke-linejoin="round"/>
<path d="M396.901 569.412C398.966 582.815 398.711 597.99 402.151 610.859" stroke="#442257" stroke-width="4" stroke-linecap="round" stroke-linejoin="round"/>
<path d="M361.277 573.4C362.552 575.948 361.494 580.305 361.774 583.491C362.093 587.058 363.048 591.021 363.749 594.665C365.214 602.037 365.952 609.535 365.953 617.051" stroke="#442257" stroke-width="4" stroke-linecap="round" stroke-linejoin="round"/>
<path d="M349.874 575.234C351.938 588.638 351.683 603.825 355.123 616.694" stroke="#442257" stroke-width="4" stroke-linecap="round" stroke-linejoin="round"/>
<path d="M387.04 570.189C383.281 578.585 389.104 592.129 389.423 601.124C389.563 605.214 389.423 609.572 390.773 613.241" stroke="#442257" stroke-width="4" stroke-linecap="round" stroke-linejoin="round"/>
<path d="M374.095 572.087C374.566 580.509 376.312 589.199 376.962 597.748C377.382 603.15 376.49 610.489 378.363 615.649" stroke="#442257" stroke-width="4" stroke-linecap="round" stroke-linejoin="round"/>
<path d="M367.648 531.52C367.979 546.949 367.877 567.654 359.481 561.64C354.244 557.818 353.633 545.815 352.499 539.458" stroke="#442257" stroke-width="4" stroke-linecap="round" stroke-linejoin="round"/>
<path d="M343.618 62.4186C344.087 85.5379 342.646 108.657 339.312 131.539C337.948 141.643 336.139 164.284 333.323 180.146" stroke="#442257" stroke-width="4" stroke-linecap="round" stroke-linejoin="round"/>
<path d="M317.932 95.6729L318.569 91.8888" stroke="#442257" stroke-width="4" stroke-linecap="round" stroke-linejoin="round"/>
<path d="M332.967 95.9148L333.719 91.672" stroke="#442257" stroke-width="4" stroke-linecap="round" stroke-linejoin="round"/>
<path d="M292.654 288.267C283.939 264.925 263.604 238.348 259.17 234.105C250.685 225.989 255.794 210.623 270.561 216.395C261.642 207.82 239.18 195.907 239.052 190.212C238.836 181.599 258.673 170.157 265.528 170.896C277.212 172.17 283.914 202.125 286.003 211.349C288.093 220.574 296.808 271.704 292.756 297.364" stroke="#442257" stroke-width="4" stroke-linecap="round" stroke-linejoin="round"/>
<path d="M267.783 170.909C267.783 170.909 269.516 165.813 270.535 161.85C279.582 159.162 293.979 165.953 302.031 169.202C308.287 171.75 309.893 181.076 310.874 186.759C312.454 195.907 314.441 204.979 315.473 214.216C317.231 229.926 318.646 263.537 316.658 279.106" stroke="#442257" stroke-width="4" stroke-linecap="round" stroke-linejoin="round"/>
<path d="M284.525 198.175C288.551 199.717 292.17 202.392 296.616 202.558C300.745 195.461 301.19 179.535 302.312 171.24" stroke="#442257" stroke-width="4" stroke-linecap="round" stroke-linejoin="round"/>
<path d="M282.321 405.472C281.811 415.499 268.102 519.212 267.223 529.456C265.949 543.853 260.534 595.06 258.75 606.068C257.947 611.037 255.539 630.161 251.857 634.098C248.633 637.513 231.471 638.099 226.884 638.558C213.251 639.934 200.014 640.915 186.725 641.475C168.887 642.227 158.414 642.456 140.704 640.66C133.645 639.946 135.263 640.877 134.244 635.755C133.174 630.314 135.926 525.748 136.678 499.973C137.429 474.198 141.532 441.542 143.914 421.106C146.182 401.637 155.381 303.709 177.156 260.084C183.527 247.47 197.746 223.772 207.212 213.235C213.838 205.858 226.706 195.665 239.307 192.849" stroke="#442257" stroke-width="4" stroke-linecap="round" stroke-linejoin="round"/>
<path d="M341.261 193.512C353.607 209.234 362.271 226.893 364.934 242.17" stroke="#442257" stroke-width="4" stroke-linecap="round" stroke-linejoin="round"/>
<path d="M316.658 227.097C320.926 209.629 331.947 182.503 340.548 167.214C344.727 171.036 349.046 186.835 347.453 192.632C344.281 191.932 335.107 193.422 332.024 192.39" stroke="#442257" stroke-width="4" stroke-linecap="round" stroke-linejoin="round"/>
<path d="M341.261 259.243C341.261 259.243 341.134 235.837 339.987 227.097C338.611 216.611 336.674 204.367 333.616 194.544" stroke="#442257" stroke-width="4" stroke-linecap="round" stroke-linejoin="round"/>
<path d="M386.938 235.277C390.69 231.955 393.954 228.12 396.634 223.886C401.335 216.879 399.641 194.748 406.47 187.982C418.791 176.999 417.771 201.997 417.185 213.923C433.073 202.456 445.967 197.041 446.184 212.585C453.395 209.323 455.192 220.905 452.312 225.326C459.435 229.34 456.721 238.067 452.924 242.297C458.556 247.394 451.65 257.051 446.834 261.281C441.327 265.753 434.619 268.493 427.557 269.155C423.441 269.372 416.497 268.901 412.267 266.926L406.05 271.041" stroke="#442257" stroke-width="4" stroke-linecap="round" stroke-linejoin="round"/>
<path d="M429.124 229.696C435.902 225.632 443.33 220.14 446.159 212.585" stroke="#442257" stroke-width="4" stroke-linecap="round" stroke-linejoin="round"/>
<path d="M433.583 242.17C439.291 238.73 450.147 232.334 452.287 225.275" stroke="#442257" stroke-width="4" stroke-linecap="round" stroke-linejoin="round"/>
<path d="M441.725 252.707C445.945 249.795 449.707 246.269 452.886 242.246" stroke="#442257" stroke-width="4" stroke-linecap="round" stroke-linejoin="round"/>
<path d="M701.375 785.513C701.095 779.449 701.261 767.943 701.261 767.943" stroke="#442257" stroke-width="4" stroke-linecap="round" stroke-linejoin="round"/>
<path d="M762.367 766.287L761.692 786.787" stroke="#442257" stroke-width="4" stroke-linecap="round" stroke-linejoin="round"/>
<path d="M643.798 784.532C643.556 776.174 644.83 767.969 644.767 759.649" stroke="#442257" stroke-width="4" stroke-linecap="round" stroke-linejoin="round"/>
</g>
<defs>
<clipPath id="clip0">
<rect width="1000" height="800" fill="white"/>
</clipPath>
</defs>
</svg>
