<svg width="1000" height="800" viewBox="0 0 1000 800" fill="none" xmlns="http://www.w3.org/2000/svg">
<g clip-path="url(#clip0)">
<path d="M651.501 401.522C640.182 394.402 629.135 389.966 624.612 376.522C624.416 375.943 624.291 375.342 624.24 374.732C623.879 374.633 619.853 370.234 619.978 367.675C619.592 366.643 624.538 365.028 624.264 363.947C623.805 362.133 620.139 356.343 621.133 354.628C621.133 354.156 627.445 353.895 629.471 354.342C637.908 356.256 646.009 358.467 655.328 359.076C654.968 357.983 657.702 355.535 657.553 354.392C656.683 347.607 652.408 340.984 649.526 334.871C643.577 322.114 636.648 309.838 628.8 298.153C625.693 296.836 622.898 295.395 620.325 297.234C607.018 306.752 606.806 323.265 603.799 338.238C603.663 338.425 602.109 351.062 602.557 356.976C602.853 363.452 602.645 369.941 601.936 376.385C601.873 377.044 600.917 406.878 600.917 406.878C601.335 408.814 602.101 410.658 603.178 412.32C609.391 422.807 615.604 426.535 615.604 426.535C628.29 424.982 655.826 421.565 668.549 419.477C671.32 419.017 674.874 418.148 676.527 416.768C668.562 412.531 659.093 406.306 651.501 401.522Z" fill="#ABDDDF"/>
<path d="M917.572 700.794C917.572 643.387 915.173 586.03 913.421 528.661C911.781 474.809 914.167 422.136 914.167 368.47C914.167 343.917 912.924 310.815 912.924 294.786C912.924 278.757 912.614 216.728 910.7 178.407C909.346 151.282 908.998 117.174 908.998 92.1734C908.998 92.1734 887.452 91.3409 872.802 91.8752C870.441 91.9498 868.08 92.0119 865.707 92.0616V93.416C865.707 93.416 866.042 155.122 866.042 185.366C866.042 242.76 868.428 300.129 870.18 357.498C871.82 411.351 869.435 464.023 869.435 517.677C869.435 542.243 870.677 575.332 870.677 591.374C870.677 607.415 871 669.419 872.914 707.74C874.256 734.865 874.616 767.731 874.616 792.743H917.895C917.895 792.743 917.572 730.976 917.572 700.794Z" fill="#442257"/>
<path d="M865.707 93.4161C865.707 93.4161 866.042 155.122 866.042 185.366C866.042 242.76 868.428 300.129 870.18 357.498C871.82 411.351 869.435 464.023 869.435 517.677C869.435 542.243 870.677 575.332 870.677 591.374C870.677 607.415 871 669.419 872.914 707.74C874.256 734.865 874.616 767.731 874.616 792.744H855.344C855.344 767.731 854.996 734.865 853.642 707.74C851.741 669.419 851.417 607.403 851.417 591.374C851.417 575.345 850.175 542.243 850.175 517.677C850.175 464.023 852.561 411.351 850.92 357.498C849.168 300.129 846.77 242.76 846.77 185.366C846.77 155.172 846.447 93.4161 846.447 93.4161H865.707Z" fill="#FAB550"/>
<path d="M624.289 428.449C624.289 433.419 624.177 440.874 624.413 445.733C655.478 447.472 689.387 439.122 719.929 441.148" stroke="#442257" stroke-width="4" stroke-linecap="round" stroke-linejoin="round"/>
<path d="M681.298 444.912C674.737 445.136 661.417 453.387 668.351 461.513C673.644 465.129 679.049 449.758 683.783 444.912C687.337 458.779 703.54 465.303 698.247 451.125C696.569 446.64 687.151 443.595 683.125 443.185C680.801 453.784 675.992 470.273 677.036 479.071" stroke="#442257" stroke-width="4" stroke-linecap="round" stroke-linejoin="round"/>
<path d="M687.2 472.584C687.735 464.483 685.585 455.524 682.951 447.994" stroke="#442257" stroke-width="4" stroke-linecap="round" stroke-linejoin="round"/>
<path d="M627.694 447.621C627.694 497.597 625.992 547.635 625.992 597.748C625.992 637.572 622.264 676.949 622.587 716.922C622.686 729.472 615.492 754.361 634.565 753.342C646.196 752.733 665.033 751.552 676.813 751.552" stroke="#442257" stroke-width="4" stroke-linecap="round" stroke-linejoin="round"/>
<path d="M673.644 495.957C676.122 496.703 678.716 496.989 681.298 496.802" stroke="#442257" stroke-width="4" stroke-linecap="round" stroke-linejoin="round"/>
<path d="M679.596 497.697C679.795 535.061 681.273 571.84 680.702 609.291C680.217 640.927 679.807 672.587 679.273 704.099C679.012 719.445 678.738 745.638 678.738 751.316C678.738 756.995 678.552 758.188 685.51 759.144C694.979 760.462 706.522 758.908 716.14 758.436C724.9 758.014 744.719 758.026 755.355 758.076C757.277 758.084 759.13 757.36 760.537 756.051C761.945 754.743 762.802 752.948 762.935 751.031C763.531 742.121 764.376 726.825 763.916 716.823C763.369 705.379 763.842 693.786 763.842 682.329V601.227C763.842 558.682 765.544 507.662 764.674 465.129" stroke="#442257" stroke-width="4" stroke-linecap="round" stroke-linejoin="round"/>
<path d="M766.961 381.057C767.134 386.412 766.501 392.24 767.743 397.335C768.787 401.572 775.832 409.574 775.832 409.574C767.743 397.335 743.923 387.493 723.197 379.467C703.316 371.75 675.806 354.379 655.763 348.8C656.136 351.148 656.497 358.741 656.497 358.741C644.282 359.797 632.726 354.031 620.139 354.603C620.798 361.114 632.341 368.271 637.436 371.377C633.969 369.936 622.773 361.636 619.978 367.65C617.493 373.03 635 382.3 637.982 385.195C632.913 383.952 630.179 377.951 624.414 379.218C625.01 389.829 651.974 401.249 659.665 405.846C685.15 421.092 711.132 437.382 737.798 450.28C755.069 458.63 776.044 474.833 794.955 468.919C822.404 460.295 815.358 413.065 813.209 388.786" stroke="#442257" stroke-width="4" stroke-linecap="round" stroke-linejoin="round"/>
<path d="M761.381 346.178C761.704 354.876 762.624 363.984 762.984 372.086C763.394 382.026 766.488 381.07 776.491 383.505C782.704 385.021 801.852 388.177 813.768 387.121C815.229 386.988 816.579 386.283 817.522 385.158C818.465 384.034 818.924 382.582 818.8 381.119C817.11 360.219 814.315 332.759 812.115 321.998C808.711 305.323 800.932 277.763 781.573 270.792C767.064 265.538 751.709 263.01 736.282 263.337C728.714 274.01 725.31 278.657 717.332 289.045C711.965 296.028 704.124 304.615 699.937 310.554" stroke="#442257" stroke-width="4" stroke-linecap="round" stroke-linejoin="round"/>
<path d="M728.093 321.141C734.194 319.898 751.068 321.141 751.068 321.141" stroke="#442257" stroke-width="4" stroke-linecap="round" stroke-linejoin="round"/>
<path d="M735.126 314.394C732.914 321.364 734.269 329.839 734.269 337.232" stroke="#442257" stroke-width="4" stroke-linecap="round" stroke-linejoin="round"/>
<path d="M711.405 311.113C703.452 310.592 695.467 310.883 687.573 311.983" stroke="#442257" stroke-width="4" stroke-linecap="round" stroke-linejoin="round"/>
<path d="M700.011 309.722C693.798 298.141 676.837 268.941 676.837 268.941C676.837 268.941 672.662 266.629 658.857 270.096C651.73 272.063 645.241 275.86 640.035 281.112C634.83 286.363 631.089 292.885 629.185 300.03" stroke="#442257" stroke-width="4" stroke-linecap="round" stroke-linejoin="round"/>
<path d="M679.745 273.849C696.085 291.543 720.75 279.353 732.877 266.393" stroke="#442257" stroke-width="4" stroke-linecap="round" stroke-linejoin="round"/>
<path d="M735.35 196.188C735.275 202.401 734.629 219.238 734.629 219.238C734.629 219.238 741.587 219.375 746.085 223.923C754.274 232.198 742.358 237.392 734.182 236.945C733.722 246.164 734.057 263.97 734.057 263.97" stroke="#442257" stroke-width="4" stroke-linecap="round" stroke-linejoin="round"/>
<path d="M676.837 268.941C676.837 247.022 676.75 225.327 677.956 203.669C678.328 196.984 679.322 180.458 682.59 175.5" stroke="#442257" stroke-width="4" stroke-linecap="round" stroke-linejoin="round"/>
<path d="M691.512 206.937V201.668" stroke="#442257" stroke-width="4" stroke-linecap="round" stroke-linejoin="round"/>
<path d="M706.82 206.067V200.798" stroke="#442257" stroke-width="4" stroke-linecap="round" stroke-linejoin="round"/>
<path d="M700.869 223.637C705.193 224.718 709.007 222.754 710.225 218.356" stroke="#442257" stroke-width="4" stroke-linecap="round" stroke-linejoin="round"/>
<path d="M655.763 348.8C655.763 348.8 638.044 313.039 629.185 300.03C620.325 287.02 600.333 296.762 586.652 297.619C576.711 298.24 552.718 299.172 552.718 299.172C529.792 300.241 530.712 332.05 529.829 349.248C528.388 377.317 533.383 401.572 517.839 425.665C532.327 439.632 567.293 433.034 584.937 432.537C587.634 423.839 587.323 413.799 588.851 404.877C590.491 395.334 590.392 385.307 590.193 375.652C589.56 344.762 591.299 320.047 616.026 299.682" stroke="#442257" stroke-width="4" stroke-linecap="round" stroke-linejoin="round"/>
<path d="M678.738 417.763C666.114 420.546 630.713 424.994 618.611 426.46C617.342 426.615 616.054 426.458 614.859 426.003C613.664 425.549 612.598 424.81 611.752 423.851L599.562 410.059" stroke="#442257" stroke-width="4" stroke-linecap="round" stroke-linejoin="round"/>
<path d="M624.264 295.482C602.259 299.309 601.898 347.98 602.147 365.575C602.346 384.847 603.389 398.105 597.761 416.744C594.848 416.721 591.939 416.941 589.063 417.402" stroke="#442257" stroke-width="4" stroke-linecap="round" stroke-linejoin="round"/>
<path d="M564.721 297.271C564.721 287.902 564.721 278.061 571.331 272.631C577.283 267.773 585.459 267.996 592.803 267.661C611.553 266.717 614.075 277.365 614.075 293.059" stroke="#442257" stroke-width="4" stroke-linecap="round" stroke-linejoin="round"/>
<path d="M580.886 266.679C575.916 249.693 567.516 227.576 567.516 227.576L575.568 225.525C582.464 237.678 591.237 265.797 591.237 265.797" stroke="#442257" stroke-width="4" stroke-linecap="round" stroke-linejoin="round"/>
<path d="M588.218 283.976C595.126 282.534 606.334 279.676 612.895 283.976" stroke="#442257" stroke-width="4" stroke-linecap="round" stroke-linejoin="round"/>
<path d="M632.788 756.833C632.788 765.009 630.813 778.118 633.646 784.94" stroke="#442257" stroke-width="4" stroke-linecap="round" stroke-linejoin="round"/>
<path d="M691.512 762.102V787.574" stroke="#442257" stroke-width="4" stroke-linecap="round" stroke-linejoin="round"/>
<path d="M752.77 761.219C752.77 769.333 753.168 786.692 753.168 786.692" stroke="#442257" stroke-width="4" stroke-linecap="round" stroke-linejoin="round"/>
<path d="M757.753 788.581C757.94 792.308 757.877 796.247 757.877 800H679.596C675.806 779.759 757.728 788.183 757.753 788.581Z" fill="#442257" stroke="#442257" stroke-width="4" stroke-linecap="round" stroke-linejoin="round"/>
<path d="M694.842 788.581C695.028 792.308 694.966 796.247 694.966 800H616.685C612.895 779.759 694.817 788.183 694.842 788.581Z" fill="#442257" stroke="#442257" stroke-width="4" stroke-linecap="round" stroke-linejoin="round"/>
<path d="M695.091 790.271C695.091 786.332 695.762 781.945 696.109 778.031C696.383 775.062 696.408 771.061 698.197 768.625C699.024 767.514 700.218 766.731 701.567 766.417C702.916 766.103 704.333 766.278 705.565 766.91C710.424 769.843 701.44 781.635 699.8 784.716C705.143 781.697 709.032 774.217 715.556 773.446C721.557 772.738 720.24 780.206 716.413 782.356C711.443 785.164 703.987 785.126 699.899 788.767" stroke="#442257" stroke-width="4" stroke-linecap="round" stroke-linejoin="round"/>
<path d="M637.895 786.692C639.946 781.175 655.453 769.942 648.246 764.077C639.461 756.933 633.174 778.851 632.093 783.697C629.732 774.676 624.637 765.221 614.162 766.563C612.92 783.188 621.22 781.138 632.801 784.94" stroke="#442257" stroke-width="4" stroke-linecap="round" stroke-linejoin="round"/>
<path d="M642.804 251.917V278.309" stroke="#442257" stroke-width="4" stroke-linecap="round" stroke-linejoin="round"/>
<path d="M917.895 792.694C917.895 792.694 917.572 730.976 917.572 700.744C917.572 643.338 915.174 585.981 913.422 528.612C911.781 474.759 914.167 422.087 914.167 368.42C914.167 343.867 912.924 310.765 912.924 294.736C912.924 278.707 912.614 216.678 910.7 178.358C909.346 151.233 908.998 117.124 908.998 92.1238C908.998 92.1238 887.452 91.2912 872.802 91.8255C846.137 92.7947 819.596 91.1173 793.067 92.4965C759.828 94.2361 725.558 96.1621 692.258 94.497C669.705 93.3663 642.804 95.3171 642.804 95.3171V227.936" stroke="#442257" stroke-width="4" stroke-linecap="round" stroke-linejoin="round"/>
<path d="M759.58 795.477H932.395" stroke="#442257" stroke-width="4" stroke-linecap="round" stroke-linejoin="round"/>
<path d="M775.609 69.4097L753.578 54.8593" stroke="#442257" stroke-width="4" stroke-linecap="round" stroke-linejoin="round"/>
<path d="M757.244 55.2071C757.244 55.2071 771.409 30.0204 778.044 19.4462C783.201 11.2204 786.282 13.4197 791.65 16.0167C792.359 16.3646 793.701 17.1598 795.092 18.0048C795.723 18.3911 796.27 18.8987 796.703 19.4981C797.136 20.0974 797.446 20.7768 797.615 21.4967C797.784 22.2167 797.808 22.9629 797.686 23.6923C797.565 24.4217 797.299 25.1197 796.906 25.746C792.706 32.4682 785.226 44.5459 782.505 49.6529C779.51 55.2444 775.895 61.6063 773.534 66.9494" stroke="#442257" stroke-width="4" stroke-linecap="round" stroke-linejoin="round"/>
<path d="M788.42 13.5067C789.6 12.2641 790.259 10.276 791.588 8.53644L797.801 11.8168L794.073 16.961" stroke="#442257" stroke-width="4" stroke-linecap="round" stroke-linejoin="round"/>
<path d="M795.365 9.34409L801.988 0" stroke="#442257" stroke-width="4" stroke-linecap="round" stroke-linejoin="round"/>
<path d="M754.423 68.7139C757.29 70.7841 760.305 72.6406 763.444 74.2682" stroke="#442257" stroke-width="4" stroke-linecap="round" stroke-linejoin="round"/>
<path d="M758.958 71.1119L764.376 62.4388" stroke="#442257" stroke-width="4" stroke-linecap="round" stroke-linejoin="round"/>
<path d="M779.399 45.3288C779.921 45.1835 780.367 44.8403 780.641 44.372L791.824 25.2738C792.037 24.9188 792.176 24.5247 792.234 24.1149C792.291 23.7051 792.266 23.288 792.16 22.8881C791.951 22.0816 791.433 21.3897 790.718 20.9621L786.991 18.7628C786.636 18.5501 786.242 18.4109 785.832 18.3533C785.422 18.2956 785.005 18.3208 784.605 18.4273C783.798 18.6359 783.106 19.1537 782.679 19.8686L771.496 38.9669C771.356 39.2022 771.265 39.4627 771.226 39.7335C771.188 40.0044 771.204 40.2801 771.272 40.5449C771.42 41.0665 771.762 41.5114 772.229 41.7875L777.808 45.0678C778.042 45.2152 778.304 45.3142 778.577 45.359C778.85 45.4039 779.129 45.3936 779.399 45.3288V45.3288Z" fill="#F9570F"/>
<path d="M425.554 315.04C424.123 319.452 423.845 324.158 424.746 328.708" stroke="#442257" stroke-width="4" stroke-linecap="round" stroke-linejoin="round"/>
<path d="M433.605 317.525C422.783 326.223 421.403 341.071 435.072 347.185C437.843 335.84 446.255 327.913 456.195 323.352C462.309 320.544 479.978 314.145 482.898 324.073C490.85 321.588 491.211 299.458 483.084 295.966C473.454 291.816 454.58 302.776 450.517 310.877" stroke="#442257" stroke-width="4" stroke-linecap="round" stroke-linejoin="round"/>
<path d="M437.631 292.587C445.944 287.306 477.393 273.762 476.3 293.419" stroke="#442257" stroke-width="4" stroke-linecap="round" stroke-linejoin="round"/>
<path d="M458.444 283.106C446.292 276.259 423.242 279.304 401.373 279.304C379.504 279.304 364.718 279.527 346.601 283.416C335.729 285.74 320.569 289.542 313.052 298.327C302.13 311.063 300.75 330.199 300.75 346.452C300.75 360.232 302.465 378.671 303.981 391.532L320.52 390.687" stroke="#442257" stroke-width="4" stroke-linecap="round" stroke-linejoin="round"/>
<path d="M321.65 335.84C321.65 359.287 320.756 382.262 321.713 405.647C322.259 418.781 321.837 438.302 322.085 450.628C333.455 451.473 346.85 449.696 358.269 448.528C371.117 447.199 383.605 446.789 396.602 446.478C406.542 446.23 416.085 446.341 425.752 445.385C430.884 444.875 438.178 444.316 442.838 444.813" stroke="#442257" stroke-width="4" stroke-linecap="round" stroke-linejoin="round"/>
<path d="M437.37 342.289C437.37 365.587 445.199 452.542 445.683 473.293C446.168 493.82 447.882 522.995 448.168 543.46C448.391 550.361 448.217 557.268 447.646 564.149C446.988 570.61 447.211 568.324 443.422 573.915C438.563 581.097 436.488 586.776 438.451 595.225" stroke="#442257" stroke-width="4" stroke-linecap="round" stroke-linejoin="round"/>
<path d="M481.034 323.042C481.034 323.042 484.016 366.681 485.122 386.959C486.191 406.641 487.284 426.332 488.403 446.031C490.391 481.208 490.428 516.173 490.428 551.301C490.428 567.454 488.614 587.248 483.892 602.432C477.431 623.171 441.098 626.6 429.753 611.018C423.292 602.122 426.361 573.443 437.706 584.751" stroke="#442257" stroke-width="4" stroke-linecap="round" stroke-linejoin="round"/>
<path d="M441.508 618.312C446.864 617.679 453.3 611.665 452.865 606.247" stroke="#442257" stroke-width="4" stroke-linecap="round" stroke-linejoin="round"/>
<path d="M459.538 619.182C464.148 616.498 469.478 610.484 469.665 604.669" stroke="#442257" stroke-width="4" stroke-linecap="round" stroke-linejoin="round"/>
<path d="M452.94 458.966C453.31 458.042 453.854 457.199 454.543 456.481" stroke="#442257" stroke-width="4" stroke-linecap="round" stroke-linejoin="round"/>
<path d="M306.342 392.402C306.342 436.985 307.746 482.028 311.176 526.313C312.145 538.925 315.997 584.925 328.36 594.02" stroke="#442257" stroke-width="4" stroke-linecap="round" stroke-linejoin="round"/>
<path d="M313.189 461.451C313.599 461.7 313.906 462.087 314.054 462.543C314.202 463 314.182 463.494 313.996 463.936" stroke="#442257" stroke-width="4" stroke-linecap="round" stroke-linejoin="round"/>
<path d="M326.484 452.306C326.484 518.46 330.212 586.813 327.217 652.893C326.31 672.997 326.484 693.376 325.651 713.443C325.13 726.117 325.241 751.764 325.241 751.764C332.697 752.161 373.49 751.764 373.49 751.764" stroke="#442257" stroke-width="4" stroke-linecap="round" stroke-linejoin="round"/>
<path d="M374.807 518.41C374.807 576.127 377.479 630.812 374.981 688.368C374.298 704.223 374.211 720.327 374 736.12C374 740.108 372.347 750.198 375.13 753.416C377.914 756.634 385.717 755.255 390.116 755.901C398.814 755.901 429.878 756.162 442.142 756.262C443.512 756.276 444.833 755.755 445.826 754.811C446.819 753.867 447.405 752.573 447.46 751.204C447.957 738.779 448.591 708.771 448.479 700.57C448.243 684.218 449.237 629.147 449.721 621.978" stroke="#442257" stroke-width="4" stroke-linecap="round" stroke-linejoin="round"/>
<path d="M382.548 758.411C382.548 765.805 382.114 784.617 382.114 784.617" stroke="#442257" stroke-width="4" stroke-linecap="round" stroke-linejoin="round"/>
<path d="M433.605 758.411V785.077" stroke="#442257" stroke-width="4" stroke-linecap="round" stroke-linejoin="round"/>
<path d="M334.536 753.416V785.039" stroke="#442257" stroke-width="4" stroke-linecap="round" stroke-linejoin="round"/>
<path d="M330.584 786.692C345.905 786.692 415.265 779.647 411.923 800H329.715C329.366 795.545 329.659 791.064 330.584 786.692Z" fill="#442257" stroke="#442257" stroke-width="4" stroke-linecap="round" stroke-linejoin="round"/>
<path d="M380.983 786.692C395.894 786.692 463.253 779.647 460.01 800H380.138C379.8 795.546 380.085 791.067 380.983 786.692V786.692Z" fill="#442257" stroke="#442257" stroke-width="4" stroke-linecap="round" stroke-linejoin="round"/>
<path d="M358.579 246.798C359.023 247.837 359.727 248.745 360.624 249.433C361.521 250.12 362.58 250.565 363.699 250.725C380.97 252.974 395.073 245.108 397.36 225.066C398.217 217.498 396.726 208.912 398.168 201.457C399.783 193.119 401.634 194.847 410.121 192.585C410.792 187.416 407.748 181.402 405.722 176.867C413.178 177.799 426.349 175.102 431.071 168.765C437.495 160.129 431.394 142.112 420.658 152.5V152.438C420.804 151.619 420.748 150.777 420.496 149.984C420.244 149.192 419.803 148.472 419.211 147.888C418.62 147.304 417.895 146.872 417.099 146.63C416.303 146.388 415.461 146.343 414.644 146.498C407.698 147.741 396.515 150.002 391.458 151.804C381.828 155.221 369.253 159.384 361.462 166.628C349.993 177.277 354.665 197.891 354.64 212.503C354.653 222.506 353.858 236.112 358.579 246.798Z" stroke="#442257" stroke-width="4" stroke-linecap="round" stroke-linejoin="round"/>
<path d="M362.73 279.266L363.164 251.408" stroke="#442257" stroke-width="4" stroke-linecap="round" stroke-linejoin="round"/>
<path d="M423.131 278.421V243.505C423.131 238.187 422.919 234.335 424.212 232.683C425.243 231.353 431.083 230.856 431.083 230.856C427.355 213.46 426.113 194.387 421.528 177.786" stroke="#442257" stroke-width="4" stroke-linecap="round" stroke-linejoin="round"/>
<path d="M186.646 245.779C187.205 254.688 192.324 264.53 180.893 270.047C170.194 275.203 159.471 275.141 147.853 275.737C138.354 276.254 128.828 275.837 119.411 274.495C112.341 273.625 104.164 273.252 104.985 264.952C106.326 251.172 108.973 239.318 111.309 226.37C115.795 201.519 122.492 173.959 147.468 163.31C175.873 151.22 208.801 167.585 207.111 201.83C200.022 202.697 192.892 203.195 185.751 203.321C185.751 218.008 186.037 236.025 186.646 245.779Z" stroke="#442257" stroke-width="4" stroke-linecap="round" stroke-linejoin="round"/>
<path d="M203.731 201.966C204.415 206.253 207.881 223.761 208.627 231.328C208.875 233.813 203.147 233.316 203.147 233.316C202.712 241.617 202.886 285.417 202.886 285.417" stroke="#442257" stroke-width="4" stroke-linecap="round" stroke-linejoin="round"/>
<path d="M148.139 286.2V276.52" stroke="#442257" stroke-width="4" stroke-linecap="round" stroke-linejoin="round"/>
<path d="M208.316 324.52L208.179 324.458C202.65 321.899 202.476 313.822 202.464 308.74C202.557 299.601 205.536 290.725 210.975 283.379C214.405 278.57 220.245 273.14 222.046 282C219.996 271.997 237.243 267.822 244.972 267.822C252.701 267.822 251.545 274.855 249.283 277.291C272.992 268.456 266.853 314.133 252.626 302.229C258.18 307.1 254.216 313.685 248.439 316.419C243.673 318.75 238.228 319.294 233.095 317.951C227.962 316.608 223.482 313.467 220.468 309.1C220.158 313.226 221.028 316.655 218.654 320.544C216.443 324.098 212.417 326.335 208.316 324.52Z" stroke="#442257" stroke-width="4" stroke-linecap="round" stroke-linejoin="round"/>
<path d="M126.009 296.476C115.807 290.039 96.8581 286.386 85.4638 294.637C78.0084 300.054 75.5855 311.933 81.9598 319.637C75.3494 314.158 62.9361 321.663 71.0998 328.584C70.1803 328.584 69.1241 328.857 68.1922 328.87C67.9313 334.821 66.8627 342.041 74.9517 341.705C74.5169 353.323 101.244 346.8 106.438 344.277" stroke="#442257" stroke-width="4" stroke-linecap="round" stroke-linejoin="round"/>
<path d="M111.893 432.313C111.893 398.652 101.654 358.107 110.365 325.167" stroke="#442257" stroke-width="4" stroke-linecap="round" stroke-linejoin="round"/>
<path d="M119.349 303.67C136.136 287.057 168.194 285.454 180.595 285.454C189.758 285.464 198.896 286.405 207.869 288.262" stroke="#442257" stroke-width="4" stroke-linecap="round" stroke-linejoin="round"/>
<path d="M217.722 420.397C197.643 420.471 167.15 420.335 147.679 424.286C135.676 426.771 118.33 426.597 108.19 434.811C99.8527 441.57 95.6032 456.618 92.1116 466.782C85.6875 485.507 86.1721 506.631 84.3952 526.04C82.1959 550.257 84.1964 574.897 83.6373 599.227C83.103 622.736 76.9895 646.071 75.4612 669.519C73.821 694.643 73.15 718.699 72.5784 743.004C80.6178 749.378 100.027 741.376 109.433 741.562C117.92 741.724 126.717 744.855 135.527 743.849C144.697 742.792 153.283 738.593 162.13 736.48C179.526 732.33 194.847 743.091 211.683 739.885C219.922 738.332 226.594 733.2 235.404 734.331C240.374 734.964 244.885 736.58 249.196 736.58C253.508 736.58 254.589 735.176 258.404 733.237C260.653 713.095 260.094 692.456 260.081 671.954C260.081 658.857 257.397 593.213 257.397 593.213" stroke="#442257" stroke-width="4" stroke-linecap="round" stroke-linejoin="round"/>
<path d="M130.258 427.417C115.136 446.553 109.234 486.215 110.054 510.184" stroke="#442257" stroke-width="4" stroke-linecap="round" stroke-linejoin="round"/>
<path d="M146.586 424.572C127.649 444.813 125.971 489.409 124.803 515.565C124.07 532.24 125.574 548.766 124.89 565.267C124.269 580.265 121.672 601.003 125.599 615.355" stroke="#442257" stroke-width="4" stroke-linecap="round" stroke-linejoin="round"/>
<path d="M124.816 643.449C124.902 648.278 124.645 653.108 124.045 657.9" stroke="#442257" stroke-width="4" stroke-linecap="round" stroke-linejoin="round"/>
<path d="M164.466 422.236C171.064 427.529 173.475 444.49 174.257 452.057" stroke="#442257" stroke-width="4" stroke-linecap="round" stroke-linejoin="round"/>
<path d="M184.683 421.9C196.909 442.117 197.22 461.911 198.674 485.271C199.668 501.424 199.258 522.138 200.078 538.241" stroke="#442257" stroke-width="4" stroke-linecap="round" stroke-linejoin="round"/>
<path d="M203.495 422.596C206.378 428.486 207.061 435.022 208.925 441.06" stroke="#442257" stroke-width="4" stroke-linecap="round" stroke-linejoin="round"/>
<path d="M229.763 708.485C229.688 686.194 228.21 664.15 228.21 641.846" stroke="#442257" stroke-width="4" stroke-linecap="round" stroke-linejoin="round"/>
<path d="M153.581 720.526C153.581 698.632 159.359 677.322 159.024 655.502" stroke="#442257" stroke-width="4" stroke-linecap="round" stroke-linejoin="round"/>
<path d="M179.24 715.704C179.128 711.144 178.383 706.634 178.457 702.036" stroke="#442257" stroke-width="4" stroke-linecap="round" stroke-linejoin="round"/>
<path d="M209.869 326.335C209.869 326.335 218.045 409.201 220.121 450.815C221.574 479.717 223.848 494.516 224.233 523.356" stroke="#442257" stroke-width="4" stroke-linecap="round" stroke-linejoin="round"/>
<path d="M251.533 314.729C251.533 314.729 256.751 361.139 258.068 384.859C259.311 406.53 261.56 428.25 262.43 449.87C263.163 468.434 264.753 524.325 264.753 524.325" stroke="#442257" stroke-width="4" stroke-linecap="round" stroke-linejoin="round"/>
<path d="M265.524 551.4C265.524 573.406 266.766 592.405 244.537 600.407C229.253 605.924 205.346 608.533 203.296 586.838C202.141 574.599 210.64 570.014 215.312 579.569" stroke="#442257" stroke-width="4" stroke-linecap="round" stroke-linejoin="round"/>
<path d="M215.772 588.714C215.772 580.016 215.772 566.348 225.712 563.689C225.874 560.297 225.824 556.818 225.836 553.388" stroke="#442257" stroke-width="4" stroke-linecap="round" stroke-linejoin="round"/>
<path d="M232.72 594.02C231.912 597.164 230.148 599.885 228.831 602.855" stroke="#442257" stroke-width="4" stroke-linecap="round" stroke-linejoin="round"/>
<path d="M246.562 590.727C246.165 592.889 243.356 598.257 242.201 600.084" stroke="#442257" stroke-width="4" stroke-linecap="round" stroke-linejoin="round"/>
<path d="M82.2207 348.812C82.2207 348.812 83.6373 422.397 84.4077 437.904C85.178 453.412 87.5141 483.693 87.5141 483.693" stroke="#442257" stroke-width="4" stroke-linecap="round" stroke-linejoin="round"/>
<path d="M229.477 427.43C228.592 428.471 227.763 429.557 226.992 430.685" stroke="#442257" stroke-width="4" stroke-linecap="round" stroke-linejoin="round"/>
<path d="M92.9441 430.71C92.2284 431.671 91.7014 432.759 91.3909 433.916" stroke="#442257" stroke-width="4" stroke-linecap="round" stroke-linejoin="round"/>
<path d="M112.378 742.643C112.378 752.36 112.838 760.958 112.378 770.675C112.042 777.783 112.055 789.053 112.055 789.053" stroke="#442257" stroke-width="4" stroke-linecap="round" stroke-linejoin="round"/>
<path d="M155.457 740.307C155.457 758.349 155.134 772.316 155.134 790.37" stroke="#442257" stroke-width="4" stroke-linecap="round" stroke-linejoin="round"/>
<path d="M213.448 739.798C214.305 755.578 210.366 772.725 211.882 787.959" stroke="#442257" stroke-width="4" stroke-linecap="round" stroke-linejoin="round"/>
<path d="M108.501 800H171.698C171.811 797.788 171.673 795.571 171.288 793.39C152.339 787.96 127.388 787.873 107.842 789.662C107.507 793.936 105.494 796.757 108.501 800Z" fill="#442257" stroke="#442257" stroke-width="4" stroke-linecap="round" stroke-linejoin="round"/>
<path d="M155.457 800H225.849C225.919 798.033 225.353 796.096 224.233 794.477C223.114 792.858 221.501 791.644 219.636 791.016C198.015 787.164 174.469 788.109 154.724 789.774C154.364 793.936 152.115 796.757 155.457 800Z" fill="#442257" stroke="#442257" stroke-width="4" stroke-linecap="round" stroke-linejoin="round"/>
<path d="M99.9521 619.368C98.1753 644.046 97.7404 668.748 95.9883 693.326C95.0813 706.099 91.8257 725.508 92.0618 737.673" stroke="#442257" stroke-width="4" stroke-linecap="round" stroke-linejoin="round"/>
<path d="M219.474 546.952C215.747 542.23 215.411 523.02 219.114 524.064C222.817 525.108 238.2 526.064 240.436 526.226C245.253 526.645 250.101 526.516 254.887 525.841C260.317 525.021 264.952 523.592 269.09 525.182C273.228 526.773 272.557 536.924 271.836 541.609C270.059 553.301 261.063 553.45 247.345 553.811C233.627 554.171 223.165 551.674 219.474 546.952Z" stroke="#442257" stroke-width="4" stroke-linecap="round" stroke-linejoin="round"/>
<path d="M224.333 539.161C224.047 538.241 224.333 537.707 225.066 537.533" stroke="#442257" stroke-width="4" stroke-linecap="round" stroke-linejoin="round"/>
<path d="M236.87 542.839L237.603 541.224" stroke="#442257" stroke-width="4" stroke-linecap="round" stroke-linejoin="round"/>
<path d="M235.839 533.234L237.38 532.389" stroke="#442257" stroke-width="4" stroke-linecap="round" stroke-linejoin="round"/>
<path d="M249.892 535.272C250.514 534.613 251.57 533.482 251.421 534.427" stroke="#442257" stroke-width="4" stroke-linecap="round" stroke-linejoin="round"/>
<path d="M251.694 544.914C252.601 543.858 253.533 543.025 253.993 543.249" stroke="#442257" stroke-width="4" stroke-linecap="round" stroke-linejoin="round"/>
<path d="M260.752 534.191C261.357 533.432 261.859 532.596 262.243 531.706" stroke="#442257" stroke-width="4" stroke-linecap="round" stroke-linejoin="round"/>
<path d="M266.344 539.658H268.667" stroke="#442257" stroke-width="4" stroke-linecap="round" stroke-linejoin="round"/>
<path d="M365.625 459.177C365.165 459.177 331.479 461.451 327.515 461.662C328.161 478.027 326.273 500.182 347.57 507.712C347.57 507.712 364.395 500.418 365.861 484.799C366.619 476.884 365.911 467.204 365.625 459.177Z" stroke="#442257" stroke-width="4" stroke-linecap="round" stroke-linejoin="round"/>
<path d="M330.758 473.156C335.617 472.932 343.78 472.659 343.78 472.659" stroke="#442257" stroke-width="4" stroke-linecap="round" stroke-linejoin="round"/>
<path d="M354.827 472.137L363.935 471.715" stroke="#442257" stroke-width="4" stroke-linecap="round" stroke-linejoin="round"/>
<path d="M429.045 458.717C428.585 458.717 394.837 459.488 390.861 459.475C390.787 475.852 387.854 497.995 408.854 506.37C408.854 506.37 426.001 499.821 428.138 484.277C429.232 476.436 428.971 466.744 429.045 458.717Z" stroke="#442257" stroke-width="4" stroke-linecap="round" stroke-linejoin="round"/>
<path d="M394.129 471.18C405.312 471.18 417.228 469.702 428.026 470.484" stroke="#442257" stroke-width="4" stroke-linecap="round" stroke-linejoin="round"/>
<path d="M369.191 515.192C372.31 515.987 376.708 516.708 379.479 517.478" stroke="#442257" stroke-width="4" stroke-linecap="round" stroke-linejoin="round"/>
<path d="M836.407 490.08C836.407 504.841 813.408 509.389 808.537 495.472C805.443 486.613 808.288 475.032 818.291 473.28C829.225 471.354 836.407 479.431 836.407 490.08Z" fill="#FAB550" stroke="#FAB550" stroke-width="4" stroke-linecap="round" stroke-linejoin="round"/>
<path d="M823.087 480.512C824.458 480.738 825.709 481.428 826.632 482.466C827.554 483.504 828.093 484.828 828.157 486.215" stroke="#442257" stroke-width="4" stroke-linecap="round" stroke-linejoin="round"/>
<path d="M861.159 493.646V484.128" stroke="#442257" stroke-width="4" stroke-linecap="round" stroke-linejoin="round"/>
<path d="M195.319 220.071V218.107" stroke="#442257" stroke-width="4" stroke-linecap="round" stroke-linejoin="round"/>
<path d="M416.495 211.373V209.409" stroke="#442257" stroke-width="4" stroke-linecap="round" stroke-linejoin="round"/>
<path d="M679.099 170.542C687.573 184.546 701.614 190.423 715.531 194.25C721.744 195.952 736.393 197.319 742.283 194.784" stroke="#442257" stroke-width="4" stroke-linecap="round" stroke-linejoin="round"/>
<path d="M734.542 252.365C744.184 251.979 753.615 251.284 763.233 250.526C769.259 250.053 777.746 249.967 783.748 249.432C785.127 247.668 784.195 243.779 783.611 241.89C782.368 238.088 779.075 234.596 776.652 231.291C772.999 226.321 772.925 222.083 772.453 215.97C771.757 207.496 767.172 200.115 762.114 193.827C758.772 189.665 753.951 186.621 751.354 181.924C747.142 174.294 744.383 165.646 739.574 160.688C734.766 155.73 721.88 149.828 708.2 149.629C694.519 149.431 679.857 154.6 672.936 160.999C664.66 168.666 663.89 181.489 660.311 190.1C658.547 194.349 654.546 196.611 651.986 200.326C647.326 207.073 650.271 214.939 647.538 222.009C645.86 226.358 641.101 228.719 638.318 232.31C634.404 237.379 632.851 245.12 632.503 251.184C640.592 251.557 648.656 252.576 656.646 253.036C663.579 253.446 669.258 253.52 676.179 253.557" stroke="#442257" stroke-width="4" stroke-linecap="round" stroke-linejoin="round"/>
</g>
<defs>
<clipPath id="clip0">
<rect width="1000" height="800" fill="white"/>
</clipPath>
</defs>
</svg>
