<svg width="1000" height="800" viewBox="0 0 1000 800" fill="none" xmlns="http://www.w3.org/2000/svg">
<g clip-path="url(#clip0)">
<path d="M561.766 792.411H649.678C653.182 778.19 625.812 779.483 618.081 779.03C607.739 778.526 573.711 778.255 561.779 778.552" stroke="#442257" stroke-width="4" stroke-linecap="round" stroke-linejoin="round"/>
<path d="M629.911 767.718V776.109" stroke="#442257" stroke-width="4" stroke-linecap="round" stroke-linejoin="round"/>
<path d="M747.791 321.537C746.201 328.441 749.665 336.185 754.074 337.801C763.977 341.434 778.069 316.779 784.119 309.721C798.909 292.461 821.159 265.57 838.56 258.098C866.679 246.036 902.077 263.967 924.87 280.554C931.036 285.04 934.876 295.176 924.262 295.732C916.402 296.146 899.466 289.371 893.17 285.558C907.74 292.086 928.334 301.071 924.818 311.259C921.12 321.964 901.056 309.371 894.075 307.38C901.832 311.052 917.061 319.843 913.105 327.484C909.149 335.125 889.64 320.218 881.263 316.792C888.412 320.037 904.404 333.496 893.376 336.844C883.034 339.986 863.887 325.325 855.16 319.856C848.412 315.642 843.396 307.872 843.396 307.872" stroke="#442257" stroke-width="4" stroke-linecap="round" stroke-linejoin="round"/>
<path d="M698.534 353.819C704.106 380.723 705.528 405.532 743.408 404.394C780.293 403.257 800.461 369.488 821.521 345.002C826.99 338.615 844.158 319.662 848.67 314.478" stroke="#442257" stroke-width="4" stroke-linecap="round" stroke-linejoin="round"/>
<path d="M654.125 99.3514C661.714 99.7392 676.207 98.1878 677.008 109.694C677.81 121.2 662.968 119.364 655.173 119.817L647.002 156.598H654.358" stroke="#442257" stroke-width="4" stroke-linecap="round" stroke-linejoin="round"/>
<path d="M572.626 149.94C581.119 116.236 588.256 80.7088 596.31 47.3797C598.226 40.3211 601.445 33.6827 605.8 27.8063" stroke="#442257" stroke-width="4" stroke-linecap="round" stroke-linejoin="round"/>
<path d="M540.395 454.879C540.507 450.742 540.611 446.605 540.706 442.468C541.171 423.076 542.322 385.325 533.142 375.707C530.04 372.462 525.45 370.419 520.007 369.152C520.6 371.379 520.908 373.673 520.925 375.978C520.693 388.906 510.104 387.07 498.844 388.066C490.389 388.816 477.435 391.518 469.238 388.35C468.105 387.912 467.026 387.349 466.019 386.67C462.257 405.493 458.869 428.997 456.969 448.725L456.206 455.19C473.879 455.047 495.495 454.944 506.329 454.698C515.211 454.504 531.979 454.737 540.395 454.879Z" fill="#ABDDDF" stroke="#ABDDDF" stroke-width="4" stroke-linecap="round" stroke-linejoin="round"/>
<path d="M629.898 484.459C633.117 484.278 637.293 484.136 641.676 484.02V483.865C641.676 463.503 640.745 448.958 641.676 428.583C642.257 415.901 644.74 386.372 649.976 375.461C647.041 371.117 632.096 369.54 617.073 369.087L617.319 370.225C619.788 392.113 566.523 407.381 561.727 390.135C561.404 395.551 561.727 401.214 561.727 405.894V485.739C580.9 485.145 616.207 485.196 629.898 484.459Z" fill="#ABDDDF" stroke="#ABDDDF" stroke-width="4" stroke-linecap="round" stroke-linejoin="round"/>
<path d="M641.701 498.616C618.883 498.784 585.709 499.133 561.766 499.792V764.822C577.952 764.977 623.964 765.818 639.917 763.038C642.503 715.514 641.934 650.329 641.934 638.849C641.934 621.564 641.766 534.867 641.701 498.616Z" fill="#ABDDDF" stroke="#ABDDDF" stroke-width="4" stroke-linecap="round" stroke-linejoin="round"/>
<path d="M539.813 764.331C539.607 746.606 539.141 728.933 538.947 711.222C538.521 672.643 538.702 582.805 538.702 544.201C538.702 519.417 539.348 494.569 539.994 469.786C527.182 469.708 492.535 469.514 462.205 469.437V469.824C464.368 478.15 466.523 486.959 468.669 496.25C475.792 527.549 484.506 577.388 489.949 621.021C495.392 664.654 498.882 704.305 499.412 729.618C499.412 729.618 492.121 732.514 483.666 735.41L483.769 736.328L486.924 759.961L496.478 764.848C512.664 765.003 539.723 764.357 539.723 764.357L539.813 764.331Z" fill="#ABDDDF" stroke="#ABDDDF" stroke-width="4" stroke-linecap="round" stroke-linejoin="round"/>
<path d="M748.192 285.984C747.222 273.47 745.606 257.852 743.925 245.48C741.792 229.656 739.038 214.568 733.751 199.287C721.029 162.506 693.233 156.016 660.059 155.331H657.073C644.145 165.88 632.354 173.676 619.943 185.467C615.883 189.345 611.759 192.926 607.609 196.482L605.838 194.155C603.705 190.819 569.148 146.178 569.148 146.178C556.263 145.782 543.441 148.122 531.526 153.043C519.233 158.641 507.494 165.385 496.465 173.185C483.21 182.925 470.6 193.514 458.714 204.885C458.714 204.885 457.059 203.915 460.369 207.471C470.298 218.072 474.875 235.241 476.374 249.19C477.098 255.939 477.667 262.713 477.977 269.501C478.184 274.181 478.262 278.861 478.288 283.541L479.477 282.804C483.73 280.05 499.503 272.461 506.058 269.746C498.96 280.89 493.246 296.766 493.246 296.766L492.974 298.189C496.853 298.46 500.731 298.796 503.239 299.184C510.544 300.296 517.771 301.253 526.29 305.338L524.015 307.574C524.015 307.574 559.49 317.633 577.021 323.774C591.41 328.816 610.376 334.465 617.383 348.337L617.732 348.958C625.868 348.958 633.944 348.958 641.96 348.958C651.462 348.958 658.456 350.742 663.628 353.974C663.628 353.974 676.401 328.117 684.378 311.673C686.271 326.89 689.455 341.92 693.893 356.599C707.351 344.692 748.192 322.623 749.484 318.667C750.777 314.711 749.174 299.43 748.192 285.984Z" fill="#ABDDDF" stroke="#ABDDDF" stroke-width="4" stroke-linecap="round" stroke-linejoin="round"/>
<path d="M539.025 792.411H444.79V778.552C456.723 778.255 516.633 778.552 526.95 779.03C529.535 779.16 534.073 779.121 539.025 779.496" stroke="#442257" stroke-width="4" stroke-linecap="round" stroke-linejoin="round"/>
<path d="M621.52 77.7223L622.076 71.9175" stroke="#442257" stroke-width="4" stroke-linecap="round" stroke-linejoin="round"/>
<path d="M602.813 97.7225C609.549 102.7 621.081 102.493 626.084 92.1762" stroke="#442257" stroke-width="4" stroke-linecap="round" stroke-linejoin="round"/>
<path d="M652.975 96.5977C641.637 79.3255 655.302 48.763 643.007 35.8347C636.724 29.2154 607.209 32.4087 601.843 23.6174C597.021 15.7053 600.447 10.6892 601.585 0.449951C623.951 4.97485 669.019 5.87984 677.138 31.5684C680.279 41.4585 671.281 109.539 652.975 96.5977Z" stroke="#442257" stroke-width="4" stroke-linecap="round" stroke-linejoin="round"/>
<path d="M623.615 235.331H666.601" stroke="#442257" stroke-width="4" stroke-linecap="round" stroke-linejoin="round"/>
<path d="M704.507 270.858C702.025 280.076 696.259 297.193 692.199 305.765C690.906 308.518 688.398 313.651 685.464 319.675" stroke="#442257" stroke-width="4" stroke-linecap="round" stroke-linejoin="round"/>
<path d="M866.641 263.101C877.966 270.263 897.992 284.808 893.04 296.004C888.089 307.2 873.893 294.284 865.671 288.389C868.502 293.004 870.157 301.718 862.646 302.7" stroke="#442257" stroke-width="4" stroke-linecap="round" stroke-linejoin="round"/>
<path d="M462.619 104.083C465.359 121.976 462.619 142.584 460.873 152.991C457.963 170.458 452.747 187.46 445.359 203.553" stroke="#442257" stroke-width="4" stroke-linecap="round" stroke-linejoin="round"/>
<path d="M386.717 193.288C389.363 185.101 391.068 176.639 391.797 168.065C361.403 170.043 376.503 127.742 398.042 139.558L398.766 132.37" stroke="#442257" stroke-width="4" stroke-linecap="round" stroke-linejoin="round"/>
<path d="M398.947 123.049C413.349 128.647 430.544 96.3261 432.651 85.4664C440.86 85.6732 457.279 98.1878 463.782 103.876C473.155 86.5006 469.729 68.6337 451.371 60.4372C438.999 54.9039 429.665 53.973 421.52 56.2613C412.819 58.7306 404.183 61.6007 394.241 71.0513C385.372 79.4676 379.231 93.2492 380.02 105.725C380.55 113.391 389.07 133.081 398.701 132.331C399.128 130.922 399.671 129.668 398.947 123.049Z" stroke="#442257" stroke-width="4" stroke-linecap="round" stroke-linejoin="round"/>
<path d="M402.799 63.7081C408.656 52.2149 384.596 40.657 380.718 55.0591C372.961 36.0157 354.693 65.1302 354.124 74.5937C353.426 86.2292 368.281 110.379 380.576 97.3605" stroke="#442257" stroke-width="4" stroke-linecap="round" stroke-linejoin="round"/>
<path d="M395.417 294.491C400.361 269.024 402.158 243.046 400.77 217.141C400.304 209.937 397.097 203.185 391.807 198.273C386.517 193.36 379.546 190.661 372.328 190.728C370.013 190.728 367.725 190.845 365.527 190.948C347.066 191.789 333.775 198.408 319.684 210.535C295.702 231.22 280.705 257.387 271.849 287.51C261.118 323.774 259.864 361.317 259.864 398.46C288.694 399.12 316.451 402.339 329.095 403.192C346.471 404.407 364.777 405.48 383.717 405.48C383.717 405.48 388.617 371.867 389.936 361.99" stroke="#442257" stroke-width="4" stroke-linecap="round" stroke-linejoin="round"/>
<path d="M321.687 245.467C315.559 275.577 309.431 306.307 306.923 337.064C305.734 351.686 305.359 365.752 318.869 368.363C336.723 371.802 355.172 369.139 377.357 364.821C391.035 362.171 401.92 358.693 420.369 352.539C430.065 330.768 433.879 314.633 455.702 301.265C437.111 297.762 423.549 295.719 404.519 295.784C393.026 295.784 353.93 289.32 357.395 309.294C381.067 309.992 381.83 274.388 380.007 259.093" stroke="#442257" stroke-width="4" stroke-linecap="round" stroke-linejoin="round"/>
<path d="M397.977 206.669C411.707 220.024 431.28 220.063 445.398 203.528C444.299 222.028 441.714 243.747 439.05 262.183C437.758 271.349 435.43 286.993 434.577 293.689" stroke="#442257" stroke-width="4" stroke-linecap="round" stroke-linejoin="round"/>
<path d="M448.54 199.339C466.859 206.178 474.396 230.509 476.336 249.1C477.06 255.848 477.628 262.623 477.939 269.41C478.197 275.073 478.275 280.735 478.262 286.398C478.262 289.604 478.068 294.155 478.158 297.335C478.158 297.335 495.883 297.969 503.201 299.093C510.518 300.218 517.732 301.162 526.252 305.247C519.994 311.711 508.281 320.283 507.247 329.333" stroke="#442257" stroke-width="4" stroke-linecap="round" stroke-linejoin="round"/>
<path d="M267.453 400.244C267.453 400.244 267.13 460.167 268.216 490.251C269.25 518.952 269.211 548.519 270.116 577.078C271.409 617.517 269.509 727.149 271.525 767.123C281.868 770.769 326.406 768.041 336.994 768.416C346.781 768.778 349.496 769.463 350 761.086C350.776 747.679 352.133 713.251 352.095 699.935C351.939 657.168 353.982 562.391 355.223 519.469C355.999 493.095 359.102 432.384 359.102 432.384" stroke="#442257" stroke-width="4" stroke-linecap="round" stroke-linejoin="round"/>
<path d="M272.625 798.332H359.05C361.416 776.6 288.578 782.818 273.723 784.111C273.53 787.408 273.193 795.023 272.625 798.332Z" fill="#442257" stroke="#442257" stroke-width="4" stroke-linecap="round" stroke-linejoin="round"/>
<path d="M277.046 768.546V782.715" stroke="#442257" stroke-width="4" stroke-linecap="round" stroke-linejoin="round"/>
<path d="M336.956 769.502L336.568 783.684" stroke="#442257" stroke-width="4" stroke-linecap="round" stroke-linejoin="round"/>
<path d="M458.301 455.203C450.841 428.583 443.407 407.471 437.124 391.195" stroke="#442257" stroke-width="4" stroke-linecap="round" stroke-linejoin="round"/>
<path d="M437.447 747.563C448.023 744.977 460.46 741.926 468.32 740.039C480.589 737.091 499.438 729.593 499.438 729.593C498.908 704.305 495.418 664.641 489.975 620.995C484.532 577.349 475.818 527.523 468.695 496.224C466.575 486.924 464.42 478.116 462.231 469.799" stroke="#442257" stroke-width="4" stroke-linecap="round" stroke-linejoin="round"/>
<path d="M357.757 460.115C369.625 477.465 374.564 496.47 380.369 516.767C387.635 541.951 401.998 615.539 406.29 641.292C410.065 663.878 413.065 690.291 415.172 715.514" stroke="#442257" stroke-width="4" stroke-linecap="round" stroke-linejoin="round"/>
<path d="M439.71 776.6C439.71 776.6 463.549 768.067 477.06 763.672C486.109 760.75 510.505 754.376 509.962 769.838C497.564 773.523 453.582 790.912 439.761 794.712L439.71 776.6Z" fill="#442257" stroke="#442257" stroke-width="4" stroke-linecap="round" stroke-linejoin="round"/>
<path d="M483.795 736.302L486.95 759.935" stroke="#442257" stroke-width="4" stroke-linecap="round" stroke-linejoin="round"/>
<path d="M454.836 303.179C479.089 309.048 510.945 330.328 527.519 348.001" stroke="#442257" stroke-width="4" stroke-linecap="round" stroke-linejoin="round"/>
<path d="M505.928 386.644C499.464 381.873 493.892 369.178 491.914 364.821" stroke="#442257" stroke-width="4" stroke-linecap="round" stroke-linejoin="round"/>
<path d="M485.23 389.087C480.666 384.343 475.327 375.745 472.845 371.725" stroke="#442257" stroke-width="4" stroke-linecap="round" stroke-linejoin="round"/>
<path d="M523.976 307.484C523.976 307.484 559.451 317.542 576.982 323.683C591.371 328.725 610.337 334.375 617.344 348.247" stroke="#442257" stroke-width="4" stroke-linecap="round" stroke-linejoin="round"/>
<path d="M567.661 374.284C573.156 381.938 568.825 391.401 581.158 391.195C591.927 391.027 596.09 379.559 595.289 370.07" stroke="#442257" stroke-width="4" stroke-linecap="round" stroke-linejoin="round"/>
<path d="M617.332 370.225C619.801 392.113 566.536 407.381 561.74 390.135" stroke="#442257" stroke-width="4" stroke-linecap="round" stroke-linejoin="round"/>
<path d="M328.539 201.769C320.782 196.352 300.433 200.412 294.344 202.946C283.083 207.639 272.443 216.999 268.022 228.427C261.429 245.467 262.101 265.208 270.375 278.15" stroke="#442257" stroke-width="4" stroke-linecap="round" stroke-linejoin="round"/>
<path d="M271.241 242.791C271.345 250.082 272.172 259.287 277.55 264.769" stroke="#442257" stroke-width="4" stroke-linecap="round" stroke-linejoin="round"/>
<path d="M279.709 227.393C278.753 232.228 281.584 249.048 285.165 252.474" stroke="#442257" stroke-width="4" stroke-linecap="round" stroke-linejoin="round"/>
<path d="M435.961 139.584V135.383" stroke="#442257" stroke-width="4" stroke-linecap="round" stroke-linejoin="round"/>
<path d="M448.54 138.989V134.801" stroke="#442257" stroke-width="4" stroke-linecap="round" stroke-linejoin="round"/>
<path d="M428.617 155.861C429.341 159.959 437.305 161.963 441.442 161.355" stroke="#442257" stroke-width="4" stroke-linecap="round" stroke-linejoin="round"/>
<path d="M387.738 151.116C389.048 152.274 390.449 153.324 391.927 154.258" stroke="#442257" stroke-width="4" stroke-linecap="round" stroke-linejoin="round"/>
<path d="M369.393 99.248C365.708 93.1975 366.083 78.9118 368.863 73.0165" stroke="#442257" stroke-width="4" stroke-linecap="round" stroke-linejoin="round"/>
<path d="M564.351 485.907C581.455 485.119 614.849 485.261 629.898 484.459C642.037 483.8 667.739 483.606 667.739 483.606V498.396C667.739 498.396 603.615 498.655 564.313 499.87" stroke="#442257" stroke-width="4" stroke-linecap="round" stroke-linejoin="round"/>
<path d="M436.93 469.411C437.59 494.311 438.223 519.288 438.223 544.201C438.223 582.805 437.758 672.644 437.977 711.222C438.158 740.789 436.555 770.291 437.253 800H415.172V405.868C415.172 384.097 416.284 363.127 431.875 353.819L442.657 357.762L445.864 360.749L451.707 370.212C447.676 371.381 444.096 373.748 441.442 376.999C434.28 386.256 435.78 423.128 436.271 442.468C436.374 446.778 436.482 451.087 436.594 455.397" stroke="#442257" stroke-width="4" stroke-linecap="round" stroke-linejoin="round"/>
<path d="M538.65 469.824C538.65 469.824 465.566 469.294 428.462 469.424C427.867 464.046 428.462 461.111 428.876 455.707C431.164 455.138 486.639 455.19 506.355 454.724C518.495 454.427 539.025 454.983 539.025 454.983" stroke="#442257" stroke-width="4" stroke-linecap="round" stroke-linejoin="round"/>
<path d="M520.007 369.113C525.45 370.406 530.04 372.423 533.142 375.668C542.322 385.286 541.171 423.089 540.706 442.429C539.904 476.237 538.702 510.251 538.702 544.162C538.702 582.766 538.521 672.605 538.947 711.183C539.271 740.75 540.369 770.252 539.671 799.961H561.766V405.868C561.766 397.646 560.654 386.372 564.119 378.719C567.364 371.582 576.207 370.212 583.072 369.449C583.072 369.449 643.744 366.153 649.988 375.409C656.233 384.666 656.259 423.076 655.78 442.417C655.461 456.146 655.259 469.906 655.173 483.697" stroke="#442257" stroke-width="4" stroke-linecap="round" stroke-linejoin="round"/>
<path d="M655.108 498.719C655.108 513.884 655.108 529.049 655.108 544.201C655.108 582.805 655.729 672.644 655.354 711.222C655.069 740.789 656.789 770.291 656.078 800H678.172V405.868C678.172 376.521 678.754 348.622 641.973 348.816C624.636 348.906 606.976 348.816 589.213 348.816H511.164" stroke="#442257" stroke-width="4" stroke-linecap="round" stroke-linejoin="round"/>
<path d="M712.535 168.647C715.832 180.644 707.532 200.968 704.339 211.918" stroke="#442257" stroke-width="4" stroke-linecap="round" stroke-linejoin="round"/>
<path d="M538.753 162.648C532.949 178.162 525.825 193.366 519.878 208.776" stroke="#442257" stroke-width="4" stroke-linecap="round" stroke-linejoin="round"/>
<path d="M509.367 208.802C508.339 210.775 507.62 212.894 507.234 215.085" stroke="#442257" stroke-width="4" stroke-linecap="round" stroke-linejoin="round"/>
<path d="M308.462 219.468C306.031 219.468 303.29 219.765 301.144 219.029C301.144 221.937 301.519 224.859 301.532 227.884" stroke="#442257" stroke-width="4" stroke-linecap="round" stroke-linejoin="round"/>
<path d="M659.271 252.306C646.226 252.422 633.828 248.427 620.654 251.22C618.611 262.364 617.37 273.03 615.483 284.239C614.267 291.285 612.225 306.708 612.225 306.708L652.82 309.643C654.28 309.527 662.193 258.705 661.197 252.306C660.551 252.293 659.917 252.306 659.271 252.306Z" fill="white" stroke="white" stroke-width="4" stroke-linecap="round" stroke-linejoin="round"/>
<path d="M651.23 277.49V272.319C648.019 272.331 644.81 272.136 641.624 271.737C642.208 268.316 642.579 264.862 642.736 261.395L637.564 261.239C637.415 264.543 637.057 267.833 636.491 271.091C633 270.647 629.487 270.401 625.968 270.354V275.525C629.21 275.568 632.447 275.792 635.664 276.197C635.057 279.563 634.642 282.96 634.423 286.372L639.594 286.605C639.797 283.315 640.181 280.039 640.745 276.792C643.979 277.195 647.234 277.416 650.493 277.451L651.23 277.49Z" fill="#F15D4A" stroke="#F15D4A" stroke-width="4" stroke-linecap="round" stroke-linejoin="round"/>
<path d="M620.46 300.593C622.425 300.309 625.981 299.158 627.894 299.598C628.822 300.076 629.621 300.773 630.221 301.627C632.354 301.757 634.1 299.675 636.478 299.313C641.533 298.563 638.211 300.063 641.352 301.989C642.723 302.83 644.843 301.86 646.705 303.567" stroke="#442257" stroke-width="4" stroke-linecap="round" stroke-linejoin="round"/>
<path d="M603.059 76.4296L603.628 70.6248" stroke="#442257" stroke-width="4" stroke-linecap="round" stroke-linejoin="round"/>
<path d="M595.147 576.948C596.866 585.791 601.882 593.858 604.054 602.21" stroke="#442257" stroke-width="4" stroke-linecap="round" stroke-linejoin="round"/>
<path d="M620.396 575.462L617.616 586.58" stroke="#442257" stroke-width="4" stroke-linecap="round" stroke-linejoin="round"/>
<path d="M501.817 337.801C510.518 344.058 521.119 365.377 520.912 375.952C520.68 388.88 510.091 387.045 498.831 388.04C490.376 388.79 477.422 391.492 469.225 388.325C461.468 385.351 456.491 376.146 452.095 369.721C449.341 365.7 446.639 360.555 442.657 357.762C438.676 354.97 428.785 352.591 420.369 352.591" stroke="#442257" stroke-width="4" stroke-linecap="round" stroke-linejoin="round"/>
<path d="M591.876 348.208C591.32 346.915 589.096 342.946 589.096 342.946" stroke="#442257" stroke-width="4" stroke-linecap="round" stroke-linejoin="round"/>
<path d="M596.323 193.611C604.222 193.831 612.147 193.366 620.085 193.366" stroke="#442257" stroke-width="4" stroke-linecap="round" stroke-linejoin="round"/>
<path d="M388.643 382.248C396.736 382.559 410.815 380.839 416.943 375.293" stroke="#442257" stroke-width="4" stroke-linecap="round" stroke-linejoin="round"/>
<path d="M640.396 251.685C640.396 251.685 641.262 239.649 645.567 233.237" stroke="#442257" stroke-width="4" stroke-linecap="round" stroke-linejoin="round"/>
<path d="M297.873 589.605C293.995 582.21 286.238 572.798 283.122 586.153C282.114 590.458 282.553 595.203 282.838 599.676C282.127 599.676 281.545 599.78 281.248 599.78C278.572 599.78 274.965 599.78 271.5 600.064C270.569 598.345 269.664 596.703 268.914 595.229C266.548 590.252 255.029 569.127 250.814 582.96C246.716 596.47 247.595 610.95 241.765 624.111C237.886 632.824 231.228 644.072 221.273 646.593C213.814 648.493 205.759 647.278 198.17 647.511C188.578 647.782 178.39 648.998 168.759 649.36C157.77 649.76 145.656 649.36 134.809 651.118C131.163 651.687 126.599 652.139 122.54 653.173C120.754 652.245 119.046 651.172 117.433 649.967L116.438 649.243C116.101 649.012 115.777 648.762 115.468 648.493L113.542 646.877C112.249 645.727 111.034 644.602 109.896 643.322C108.758 642.042 107.595 640.736 106.483 639.444C105.371 638.151 104.35 636.703 103.419 635.242C101.469 632.381 99.7772 629.353 98.3641 626.192C98.0021 625.429 97.7176 624.692 97.4074 623.917C97.0971 623.141 96.8256 622.378 96.5929 621.577L96.2309 620.4L95.9077 619.198C95.6621 618.396 95.5198 617.582 95.3389 616.767C94.6792 613.584 94.3972 610.334 94.4985 607.084C94.5809 604.081 95.1529 601.112 96.1921 598.293C96.3044 597.961 96.4383 597.637 96.5929 597.323C96.748 597 96.8515 596.716 97.0325 596.354C97.4591 595.565 97.8728 594.776 98.3253 593.975C99.2173 592.385 100.2 590.782 101.234 589.14C103.29 585.869 105.565 582.469 107.789 578.797C110.162 575.003 112.237 571.031 113.994 566.916C114.906 564.749 115.675 562.525 116.296 560.258C116.948 557.931 117.424 555.559 117.718 553.16C118.061 550.611 118.131 548.032 117.925 545.468C117.719 542.622 117.069 539.826 115.998 537.181C114.762 534.31 112.938 531.73 110.646 529.605C110.051 529.101 109.495 528.571 108.849 528.105C108.202 527.64 107.556 527.187 106.858 526.812C106.16 526.437 105.5 526.114 104.815 525.778C104.13 525.442 103.522 525.235 102.786 524.964C100.215 524.095 97.5421 523.565 94.8347 523.386C92.2851 523.224 89.7256 523.315 87.194 523.658C84.633 524.004 82.1182 524.633 79.6956 525.532C76.9976 526.496 74.4706 527.884 72.2101 529.644L72.0291 529.786L71.6672 530.096C70.2746 531.523 69.4775 533.427 69.4379 535.421C69.3984 537.415 70.1192 539.349 71.4541 540.83C72.789 542.311 74.6377 543.229 76.6247 543.396C78.6117 543.564 80.588 542.969 82.152 541.732C83.0585 540.999 84.0809 540.422 85.1772 540.025C86.5215 539.5 87.9232 539.135 89.353 538.939C90.8128 538.731 92.2897 538.67 93.7616 538.758C95.0822 538.85 96.3856 539.111 97.6401 539.534L98.4158 539.844C98.6216 539.974 98.8378 540.086 99.0622 540.18C99.2284 540.309 99.401 540.43 99.5793 540.542C99.7474 540.659 99.9025 540.853 100.071 540.995C100.731 541.624 101.244 542.392 101.57 543.244C101.954 544.345 102.18 545.494 102.243 546.657C102.305 548.11 102.219 549.566 101.984 551.001C101.723 552.593 101.338 554.162 100.833 555.694C100.33 557.286 99.7161 558.841 98.9976 560.348C98.2649 561.937 97.4493 563.486 96.5541 564.99C95.675 566.528 94.6536 568.08 93.5935 569.618C91.4604 572.721 89.0816 575.888 86.651 579.301C85.4487 581.008 84.2205 582.753 83.0311 584.615C82.4364 585.52 81.8546 586.489 81.2729 587.446C80.9626 587.963 80.6394 588.584 80.3291 589.153C80.0188 589.721 79.6956 590.316 79.45 590.911C77.3269 595.507 75.973 600.42 75.4422 605.455C74.8981 610.238 74.9241 615.068 75.5198 619.844C76.0827 624.561 77.1223 629.209 78.6226 633.716L79.7732 637.013L81.066 640.219C81.4797 641.305 81.9968 642.327 82.4623 643.374L83.1862 644.951L83.9749 646.477L84.7635 648.002C85.0221 648.519 85.2936 649.024 85.5909 649.528L87.2975 652.514C88.5256 654.466 89.715 656.393 91.0725 658.332C92.43 660.271 93.8262 662.081 95.2742 663.943L97.5625 666.645C97.9374 667.11 98.3382 667.55 98.7519 667.938L99.9801 669.23L101.273 670.523L102.566 671.816L104.492 673.613C104.13 675.048 103.833 676.509 103.574 677.957C101.687 689.14 102.281 700.194 102.656 711.183C102.941 720.233 100.575 726.619 98.4546 735.152C96.1275 744.525 96.2955 754.622 96.3085 764.37C96.3085 778.41 95.8301 798.255 95.8301 798.255H131.409C131.409 798.255 132.184 775.85 133.994 766.723C135.287 760.427 136.36 757.311 142.475 754.299C148.59 751.286 155.119 749.269 160.226 744.706C162.156 742.971 163.859 740.999 165.294 738.836C172.283 740.74 179.418 742.059 186.626 742.779C197.273 743.931 208.042 743.08 218.377 740.271C219.127 741.448 219.851 742.56 220.536 743.581C221.404 745.004 222.592 746.205 224.007 747.087C225.421 747.969 227.022 748.508 228.681 748.662C228.41 752.321 228.099 755.966 227.841 759.573C227.026 771.041 225.604 798.255 225.604 798.255H254.279C254.279 793.083 250.401 790.756 247.143 788.507C249.573 781.112 252.857 771.39 254.9 766.451C257.546 760.185 260.187 753.889 262.825 747.563C265.853 748.812 268.74 750.381 271.435 752.243C275.314 754.906 278.701 757.414 283.497 755.242C287.259 753.575 291.526 748.171 291.254 743.891C290.905 738.72 285.424 730.42 281.209 727.511C278.577 725.772 275.63 724.564 272.534 723.956C278.106 710.097 292.456 683.878 298.171 670.135C310 641.641 315.094 622.792 297.873 589.605Z" fill="#FAB550" stroke="#FAB550" stroke-width="4" stroke-linecap="round" stroke-linejoin="round"/>
<path d="M281.015 635.656C284.144 638.435 288.41 638.733 291.358 635.126C294.305 631.519 293.051 628.661 292.65 624.369C293.775 627.718 293.219 632.281 296.206 634.57C300.02 637.504 304.363 635.397 304.829 631.312" stroke="#442257" stroke-width="4" stroke-linecap="round" stroke-linejoin="round"/>
<path d="M276.865 616.961L277.977 621.654" stroke="#442257" stroke-width="4" stroke-linecap="round" stroke-linejoin="round"/>
<path d="M300.718 615.177L301.817 619.87" stroke="#442257" stroke-width="4" stroke-linecap="round" stroke-linejoin="round"/>
<path d="M213.762 741.344C208.483 734.418 204.478 726.609 201.933 718.28" stroke="#442257" stroke-width="4" stroke-linecap="round" stroke-linejoin="round"/>
<path d="M257.356 703.852C257.356 708.196 258.791 713.704 259.942 717.905C264.376 718.267 269.302 718.862 273.659 719.198" stroke="#442257" stroke-width="4" stroke-linecap="round" stroke-linejoin="round"/>
<path d="M281.209 746.27C282.683 747.977 284.299 749.761 284.725 751.933" stroke="#442257" stroke-width="4" stroke-linecap="round" stroke-linejoin="round"/>
<path d="M286.199 741.823C287.673 743.529 289.276 745.313 289.703 747.485" stroke="#442257" stroke-width="4" stroke-linecap="round" stroke-linejoin="round"/>
<path d="M229.185 754.234C239.98 752.527 252.301 747.77 262.476 753.161" stroke="#442257" stroke-width="4" stroke-linecap="round" stroke-linejoin="round"/>
<path d="M146.535 735.902C150.685 738.655 158.274 741.409 163.199 741.344" stroke="#442257" stroke-width="4" stroke-linecap="round" stroke-linejoin="round"/>
<path d="M118.351 798.707C118.351 788.778 119.644 769.619 121.583 762.288C123.522 754.958 136.089 749.127 143.277 739.715C147.799 734.067 150.815 727.364 152.042 720.232" stroke="#442257" stroke-width="4" stroke-linecap="round" stroke-linejoin="round"/>
<path d="M257.55 591.182V598.603" stroke="#442257" stroke-width="4" stroke-linecap="round" stroke-linejoin="round"/>
<path d="M289.923 589.799C289.386 591.745 289.386 593.8 289.923 595.746" stroke="#442257" stroke-width="4" stroke-linecap="round" stroke-linejoin="round"/>
<path d="M250.478 794.402L251.965 797.376" stroke="#442257" stroke-width="4" stroke-linecap="round" stroke-linejoin="round"/>
<path d="M244.014 794.402L245.501 797.376" stroke="#442257" stroke-width="4" stroke-linecap="round" stroke-linejoin="round"/>
<path d="M127.492 796.031V798.332" stroke="#442257" stroke-width="4" stroke-linecap="round" stroke-linejoin="round"/>
<path d="M111.978 796.031V798.332" stroke="#442257" stroke-width="4" stroke-linecap="round" stroke-linejoin="round"/>
<path d="M105.513 796.031V798.332" stroke="#442257" stroke-width="4" stroke-linecap="round" stroke-linejoin="round"/>
</g>
<defs>
<clipPath id="clip0">
<rect width="1000" height="800" fill="white"/>
</clipPath>
</defs>
</svg>
